<svg width="39" height="53" viewBox="0 0 39 53" fill="none" xmlns="http://www.w3.org/2000/svg">
<path d="M17.9688 32.8312C17.6187 32.2187 17.025 31.875 16.375 31.875C15.8938 31.875 15.4312 32.0687 15.0937 32.4062L14.375 33.125H5.625V30.625H0.625V27.5625C0.625 26.3062 1.05 25.0937 1.8375 24.1125C2.66875 23.075 3.84375 22.3687 5.15625 22.1312L8.2625 21.5687L10 25.625L13.125 23.125L16.25 25.625L17.9875 21.5687L18.3375 21.6312C18.2 21.8875 18.125 22.1875 18.125 22.5C18.125 23.0187 18.3375 23.4875 18.675 23.825C19.0125 24.1625 19.4813 24.375 20 24.375H20.75C21 25.6 21.6063 26.6937 22.4563 27.5437C23 28.0875 23.6375 28.525 24.35 28.8375V28.8437L23.75 31.25L20.7 31.6875C19.8312 31.8125 18.9937 32.1312 18.2562 32.6187C18.1625 32.6812 18.0625 32.75 17.975 32.825L17.9688 32.8312Z" fill="#FCD770"/>
<path d="M13.125 23.125L9.99998 25.625L8.26248 21.5687L9.99998 21.25L13.125 23.125Z" fill="#FFC729"/>
<path d="M17.9875 21.5687L16.25 25.625L13.125 23.125L16.25 21.25L17.9875 21.5687Z" fill="#FFC729"/>
<path d="M18.2562 32.6187C18.9937 32.1312 19.8312 31.8125 20.7 31.6875L23.75 31.25L23.9625 31.5625C24.6125 32.5375 25.7062 33.125 26.875 33.125C27.4625 33.125 28.025 32.975 28.525 32.7125C29.025 32.4375 29.4625 32.05 29.7875 31.5625L30 31.25L33.05 31.6875C33.9188 31.8125 34.7563 32.1312 35.4938 32.6187C36.3125 33.1687 36.975 33.9062 37.425 34.75C37.875 35.5937 38.125 36.55 38.125 37.5375V38.125H19.375C20.0625 38.125 20.6875 37.8438 21.1438 37.3938C21.5938 36.9375 21.875 36.3125 21.875 35.625C21.875 34.2437 20.7563 33.125 19.375 33.125H18.125L18 32.8813C17.9937 32.8625 17.9812 32.8437 17.9688 32.8312L17.975 32.825C18.0625 32.75 18.1625 32.6812 18.2562 32.6187V32.6187Z" fill="#75B1F2"/>
<path d="M9.4375 6.6L8.70625 7.0375C7.56875 7.7125 6.875 8.9375 6.875 10.2562V10.625H6.25C5.75 10.625 5.29375 10.825 4.9625 11.1375C4.575 9.93125 4.375 8.66875 4.375 7.4C4.375 3.65625 7.40625 0.625 11.15 0.625H18.4687C19.2375 0.625 19.9313 0.9375 20.4375 1.4375C20.9375 1.94375 21.25 2.6375 21.25 3.40625C21.25 3.6375 21.225 3.8625 21.1687 4.08125L20.625 6.25L20.925 6.55C21.5312 7.15625 21.875 7.9875 21.875 8.85C21.875 9.19375 21.8187 9.54375 21.7062 9.875L21.2875 11.1375C20.95 10.8187 20.5 10.625 20 10.625H19.375V10.4813C19.375 9.85 18.9062 9.31875 18.2812 9.2375L11.425 8.38125C10.8375 8.3125 10.325 8.025 9.9625 7.60625C9.7125 7.325 9.525 6.98125 9.4375 6.6V6.6Z" fill="#B27946"/>
<path d="M33.125 16.875C33.125 17.9125 32.2875 18.75 31.25 18.75H26.9375C25.5687 18.75 24.3438 18.0375 23.65 16.9375L22.75 17.475C21.6063 18.1625 20.8437 19.325 20.6687 20.6312L20.625 20.625H20C19.4375 20.625 18.9375 20.8688 18.6 21.2625L18.5938 21.2562L18.3438 20.2375C18.2 19.6625 18.125 19.075 18.125 18.4875C18.125 17.8125 18.2125 17.1563 18.375 16.525C18.5625 15.7938 18.85 15.1 19.2313 14.4625C19.5625 13.9 19.9688 13.3875 20.425 12.925C20.8313 12.525 21.2812 12.1625 21.7625 11.8562C22.9812 11.075 24.4313 10.625 25.9875 10.625H27.7625C32.1062 10.625 35.625 14.1438 35.625 18.4875C35.625 19.075 35.55 19.6625 35.4063 20.2375L35.0312 21.7563C34.7 21.4438 34.25 21.25 33.75 21.25H33.125V16.875Z" fill="#656D78"/>
<path d="M5.625 33.125H14.375L15.0937 32.4062C15.4312 32.0687 15.8938 31.875 16.375 31.875C17.025 31.875 17.6187 32.2187 17.9688 32.8312C17.9812 32.8437 17.9937 32.8625 18 32.8813L18.125 33.125H19.375C20.7563 33.125 21.875 34.2437 21.875 35.625C21.875 36.3125 21.5938 36.9375 21.1438 37.3938C20.6875 37.8438 20.0625 38.125 19.375 38.125H5C2.58125 38.125 0.625 36.1687 0.625 33.75V30.625H5.625V33.125Z" fill="#F0D0B4"/>
<path d="M35.0312 21.7563C35.4 22.1 35.625 22.5875 35.625 23.125C35.625 23.6437 35.4125 24.1125 35.075 24.45C34.7375 24.7875 34.2687 25 33.75 25H32.8375C33.025 24.4063 33.125 23.7812 33.125 23.125V21.25H33.75C34.25 21.25 34.7 21.4438 35.0312 21.7563Z" fill="#F0D0B4"/>
<path d="M29.4 28.8438L30 31.25L29.7875 31.5625C29.4625 32.05 29.025 32.4375 28.525 32.7125C28.025 32.975 27.4625 33.125 26.875 33.125C25.7062 33.125 24.6125 32.5375 23.9625 31.5625L23.75 31.25L24.35 28.8438V28.8375C25.1187 29.1875 25.975 29.375 26.875 29.375C27.775 29.375 28.6313 29.1875 29.4 28.8375V28.8438Z" fill="#F0D0B4"/>
<path d="M33.125 16.875V21.25V23.125C33.125 23.7812 33.025 24.4063 32.8375 25C32.3 26.7188 31.0313 28.1187 29.4 28.8375C28.6313 29.1875 27.775 29.375 26.875 29.375C25.975 29.375 25.1187 29.1875 24.35 28.8375C23.6375 28.525 23 28.0875 22.4563 27.5437C21.6063 26.6937 21 25.6 20.75 24.375C20.6688 23.975 20.625 23.5562 20.625 23.125V21.225C20.625 21.025 20.6375 20.825 20.6687 20.6312C20.8437 19.325 21.6063 18.1625 22.75 17.475L23.65 16.9375C24.3438 18.0375 25.5687 18.75 26.9375 18.75H31.25C32.2875 18.75 33.125 17.9125 33.125 16.875V16.875Z" fill="#F0D0B4"/>
<path d="M20.625 21.225V23.125C20.625 23.5562 20.6687 23.975 20.75 24.375H20C19.4812 24.375 19.0125 24.1625 18.675 23.825C18.3375 23.4875 18.125 23.0187 18.125 22.5C18.125 22.1875 18.2 21.8875 18.3375 21.6313C18.4125 21.5 18.4938 21.375 18.6 21.2625C18.9375 20.8688 19.4375 20.625 20 20.625H20.625L20.6687 20.6312C20.6375 20.825 20.625 21.025 20.625 21.225V21.225Z" fill="#F0D0B4"/>
<path d="M15.7562 18.7937L16.25 21.25L13.125 23.125L10 21.25L10.4875 18.8L10.4938 18.7875C11.2938 19.1687 12.1813 19.375 13.125 19.375C14.0687 19.375 14.9562 19.1625 15.7562 18.7937V18.7937Z" fill="#F0D0B4"/>
<path d="M21.2875 11.1375C21.5 11.3375 21.6625 11.5812 21.7625 11.8562C21.2813 12.1625 20.8313 12.525 20.425 12.925C19.9688 13.3875 19.5625 13.9 19.2313 14.4625C19.325 14.0312 19.375 13.5813 19.375 13.125V10.625H20C20.5 10.625 20.95 10.8187 21.2875 11.1375Z" fill="#F0D0B4"/>
<path d="M19.375 10.625V13.125C19.375 13.5812 19.325 14.0312 19.2313 14.4625C18.85 15.1 18.5625 15.7937 18.375 16.525C17.7375 17.5062 16.8312 18.3 15.7562 18.7937C14.9562 19.1625 14.0687 19.375 13.125 19.375C12.1813 19.375 11.2938 19.1687 10.4938 18.7875C9.825 18.4812 9.21875 18.0562 8.70625 17.5437C7.85625 16.6937 7.25 15.6 7 14.375C6.91875 13.975 6.875 13.5562 6.875 13.125V10.625V10.2562C6.875 8.93748 7.56875 7.71248 8.70625 7.03748L9.4375 6.59998C9.525 6.98123 9.7125 7.32498 9.9625 7.60623C10.325 8.02498 10.8375 8.31248 11.425 8.38123L18.2812 9.23748C18.9062 9.31873 19.375 9.84998 19.375 10.4812V10.625Z" fill="#F0D0B4"/>
<path d="M7 14.375H6.25C5.73125 14.375 5.2625 14.1625 4.925 13.825C4.5875 13.4875 4.375 13.0187 4.375 12.5C4.375 11.9625 4.6 11.4812 4.9625 11.1375C5.29375 10.825 5.75 10.625 6.25 10.625H6.875V13.125C6.875 13.5562 6.91875 13.975 7 14.375Z" fill="#F0D0B4"/>
<path d="M10.625 14.375H15.625C15.625 15.7563 14.5063 16.875 13.125 16.875C12.4375 16.875 11.8125 16.5937 11.3563 16.1437C10.9063 15.6875 10.625 15.0625 10.625 14.375Z" fill="#FF826E"/>
<path d="M24.9 25H29.9C29.9 26.3813 28.7812 27.5 27.4 27.5C26.7125 27.5 26.0875 27.2187 25.6312 26.7687C25.1812 26.3125 24.9 25.6875 24.9 25Z" fill="#FF826E"/>
<path d="M30.5862 22.0691C30.2051 22.0691 29.8965 21.7602 29.8965 21.3794V20.6897C29.8965 20.3088 30.205 20 30.5862 20C30.9674 20 31.2759 20.3088 31.2759 20.6897V21.3794C31.2759 21.7602 30.9675 22.0691 30.5862 22.0691Z" fill="#553732"/>
<path d="M23.6897 22.0691C23.3085 22.0691 23 21.7602 23 21.3794V20.6897C23 20.3088 23.3084 20 23.6897 20C24.0709 20 24.3794 20.3088 24.3794 20.6897V21.3794C24.3794 21.7602 24.0709 22.0691 23.6897 22.0691Z" fill="#553732"/>
<path d="M16.5862 12.0691C16.2051 12.0691 15.8965 11.7602 15.8965 11.3794V10.6897C15.8965 10.3088 16.205 10 16.5862 10C16.9674 10 17.2759 10.3088 17.2759 10.6897V11.3794C17.2759 11.7602 16.9675 12.0691 16.5862 12.0691Z" fill="#553732"/>
<path d="M9.68968 12.0691C9.30851 12.0691 9 11.7602 9 11.3794V10.6897C9 10.3088 9.30844 10 9.68968 10C10.0709 10 10.3794 10.3088 10.3794 10.6897V11.3794C10.3794 11.7602 10.0709 12.0691 9.68968 12.0691Z" fill="#553732"/>
<path d="M1.02945 51V43.0991H2.27018C2.9899 43.0991 3.51627 43.1457 3.84928 43.2388C4.32193 43.3641 4.69791 43.5968 4.97721 43.937C5.2565 44.2772 5.39615 44.6782 5.39615 45.1401C5.39615 45.4409 5.3317 45.7148 5.20279 45.9619C5.07747 46.2054 4.87158 46.4346 4.58512 46.6494C5.06494 46.875 5.41585 47.1579 5.63785 47.498C5.85986 47.8346 5.97086 48.2339 5.97086 48.6958C5.97086 49.1398 5.85628 49.5444 5.62711 49.9097C5.39794 50.2749 5.10253 50.5488 4.74088 50.7314C4.37923 50.9105 3.87971 51 3.24234 51H1.02945ZM2.53336 44.5332V46.1982H2.861C3.22623 46.1982 3.49658 46.1213 3.67203 45.9673C3.85107 45.8133 3.94059 45.6038 3.94059 45.3389C3.94059 45.0918 3.85644 44.8966 3.68814 44.7534C3.51985 44.6066 3.26383 44.5332 2.92008 44.5332H2.53336ZM2.53336 47.541V49.5659H2.90934C3.53238 49.5659 3.95133 49.4871 4.16617 49.3296C4.3846 49.172 4.49381 48.9429 4.49381 48.6421C4.49381 48.3019 4.36669 48.0334 4.11246 47.8364C3.85823 47.6395 3.4357 47.541 2.84488 47.541H2.53336ZM7.12543 45.1562H8.38227V45.8921C8.51833 45.6021 8.69916 45.3818 8.92475 45.2314C9.15033 45.0811 9.3974 45.0059 9.66596 45.0059C9.85574 45.0059 10.0545 45.056 10.2621 45.1562L9.80561 46.4185C9.63373 46.3325 9.49229 46.2896 9.38129 46.2896C9.1557 46.2896 8.96413 46.4292 8.80658 46.7085C8.65261 46.9878 8.57562 47.5356 8.57562 48.3521L8.581 48.6367V51H7.12543V45.1562ZM13.9572 45.0059C14.5087 45.0059 15.0261 45.1437 15.5095 45.4194C15.9965 45.6951 16.376 46.0693 16.6482 46.542C16.9203 47.0146 17.0564 47.5249 17.0564 48.0728C17.0564 48.6242 16.9185 49.1398 16.6428 49.6196C16.3707 50.0994 15.9983 50.4754 15.5256 50.7476C15.0529 51.0161 14.532 51.1504 13.9626 51.1504C13.1247 51.1504 12.4086 50.8532 11.8142 50.2588C11.2234 49.6608 10.9279 48.9357 10.9279 48.0835C10.9279 47.1704 11.2627 46.4095 11.9323 45.8008C12.5196 45.2708 13.1946 45.0059 13.9572 45.0059ZM13.9787 46.3862C13.524 46.3862 13.1444 46.5456 12.8401 46.8643C12.5393 47.1794 12.3889 47.584 12.3889 48.0781C12.3889 48.5866 12.5375 48.9984 12.8347 49.3135C13.1355 49.6286 13.515 49.7861 13.9734 49.7861C14.4317 49.7861 14.813 49.6268 15.1174 49.3081C15.4218 48.9894 15.5739 48.5794 15.5739 48.0781C15.5739 47.5768 15.4236 47.1704 15.1228 46.8589C14.8256 46.5438 14.4442 46.3862 13.9787 46.3862ZM18.6567 43.0024H20.1177V45.1562H20.9878V46.4185H20.1177V51H18.6567V46.4185H17.9048V45.1562H18.6567V43.0024ZM22.0027 42.9004H23.4583V45.7471C23.7447 45.5 24.033 45.3156 24.323 45.1938C24.6131 45.0685 24.9067 45.0059 25.2039 45.0059C25.784 45.0059 26.2727 45.2064 26.6702 45.6074C27.0104 45.9548 27.1804 46.465 27.1804 47.1382V51H25.7356V48.438C25.7356 47.7612 25.7034 47.3029 25.6389 47.063C25.5745 46.8231 25.4635 46.644 25.3059 46.5259C25.152 46.4077 24.9604 46.3486 24.7312 46.3486C24.434 46.3486 24.178 46.4471 23.9632 46.644C23.7519 46.841 23.6051 47.1095 23.5227 47.4497C23.4798 47.6252 23.4583 48.0262 23.4583 48.6528V51H22.0027V42.9004ZM34.6783 48.5024H29.9678C30.0359 48.9178 30.2167 49.249 30.5103 49.4961C30.8075 49.7396 31.1853 49.8613 31.6436 49.8613C32.1915 49.8613 32.6623 49.6698 33.0562 49.2866L34.2916 49.8667C33.9836 50.3035 33.6148 50.6276 33.1851 50.8389C32.7554 51.0465 32.2452 51.1504 31.6544 51.1504C30.7377 51.1504 29.9911 50.8621 29.4146 50.2856C28.8381 49.7056 28.5499 48.9805 28.5499 48.1104C28.5499 47.2188 28.8363 46.4793 29.4092 45.8921C29.9857 45.3013 30.7073 45.0059 31.5738 45.0059C32.494 45.0059 33.2424 45.3013 33.8189 45.8921C34.3954 46.4793 34.6837 47.2563 34.6837 48.2231L34.6783 48.5024ZM33.2066 47.3477C33.1099 47.0218 32.9184 46.7568 32.6319 46.5527C32.349 46.3486 32.0196 46.2466 31.6436 46.2466C31.2354 46.2466 30.8773 46.3612 30.5694 46.5903C30.376 46.7336 30.197 46.986 30.0323 47.3477H33.2066ZM35.7469 45.1562H37.0037V45.8921C37.1398 45.6021 37.3206 45.3818 37.5462 45.2314C37.7718 45.0811 38.0189 45.0059 38.2874 45.0059C38.4772 45.0059 38.676 45.056 38.8836 45.1562L38.4271 46.4185C38.2552 46.3325 38.1138 46.2896 38.0028 46.2896C37.7772 46.2896 37.5856 46.4292 37.4281 46.7085C37.2741 46.9878 37.1971 47.5356 37.1971 48.3521L37.2025 48.6367V51H35.7469V45.1562Z" fill="black"/>
</svg>
