<svg width="40" height="55" viewBox="0 0 40 55" fill="none" xmlns="http://www.w3.org/2000/svg">
<path d="M29.25 3.37573C29.7368 4.02484 30 4.81434 30 5.62573V8.52323C30 8.79351 30.0532 9.06114 30.1567 9.31085C30.2601 9.56055 30.4117 9.78744 30.6028 9.97855C30.808 10.1837 30.9708 10.4273 31.0818 10.6954C31.1929 10.9635 31.25 11.2509 31.25 11.541C31.25 12.1271 31.0172 12.6891 30.6028 13.1035C30.1884 13.5179 29.6264 13.7507 29.0403 13.7507H20.9597C20.3736 13.7507 19.8116 13.5179 19.3972 13.1035C18.9828 12.6891 18.75 12.1271 18.75 11.541C18.75 11.2509 18.8071 10.9635 18.9182 10.6954C19.0292 10.4273 19.192 10.1837 19.3972 9.97855C19.5883 9.78744 19.7399 9.56055 19.8433 9.31085C19.9468 9.06114 20 8.79351 20 8.52323V5.62573C20 4.81434 20.2632 4.02484 20.75 3.37573C21.0993 2.90996 21.5522 2.53192 22.0729 2.27156C22.5936 2.01121 23.1678 1.87568 23.75 1.87573H26.25C26.8322 1.87568 27.4064 2.01121 27.9271 2.27156C28.4478 2.53192 28.9007 2.90996 29.25 3.37573Z" fill="#BFBFBD"/>
<path d="M28.75 9.375C28.75 10.3696 28.3549 11.3234 27.6517 12.0267C26.9484 12.7299 25.9946 13.125 25 13.125C24.7145 13.125 24.4299 13.0928 24.1516 13.0289C23.3266 12.8366 22.5909 12.3709 22.0641 11.7076C21.5373 11.0442 21.2504 10.2221 21.25 9.375V6.25C22.0012 6.2501 22.7376 6.04096 23.3766 5.64604C24.0157 5.25111 24.5321 4.686 24.868 4.01406L25 3.75C25.0563 3.75 25.1125 3.75234 25.168 3.75703C25.6981 3.79919 26.1929 4.03922 26.5542 4.42944C26.9155 4.81966 27.1167 5.3315 27.118 5.86328C27.118 5.98132 27.1083 6.09916 27.0891 6.21562L26.9586 7C26.8782 7.48116 26.9729 7.9752 27.2256 8.39247C27.4783 8.80974 27.8723 9.12258 28.3359 9.27422C28.4716 9.31685 28.6099 9.35052 28.75 9.375V9.375Z" fill="#FEC9A3"/>
<path d="M28.75 9.37505C28.75 10.3696 28.3549 11.3234 27.6516 12.0267C26.9484 12.73 25.9945 13.1251 25 13.1251C24.7145 13.1251 24.4298 13.0928 24.1516 13.029C24.6962 12.505 25.1293 11.8764 25.4248 11.1808C25.7203 10.4852 25.8721 9.73704 25.8711 8.9813V6.4813C25.8727 5.52814 25.6307 4.59037 25.168 3.75708C25.6981 3.79923 26.1929 4.03927 26.5542 4.42949C26.9155 4.81971 27.1167 5.33155 27.118 5.86333C27.1179 5.98137 27.1083 6.09921 27.089 6.21567L26.9586 7.00005C26.8782 7.4812 26.9729 7.97525 27.2256 8.39252C27.4783 8.80979 27.8723 9.12263 28.3359 9.27427C28.4716 9.3169 28.6099 9.35057 28.75 9.37505V9.37505Z" fill="#FEC093"/>
<path d="M30.625 16.25V26.875H20V16.25C20 15.587 20.2634 14.9511 20.7322 14.4822C21.2011 14.0134 21.837 13.75 22.5 13.75H28.125C28.4534 13.7498 28.7785 13.8143 29.0819 13.9399C29.3853 14.0655 29.661 14.2496 29.8932 14.4818C30.1254 14.714 30.3095 14.9897 30.4351 15.2931C30.5607 15.5965 30.6252 15.9216 30.625 16.25Z" fill="#D3669A"/>
<path d="M30.625 16.25V26.875H20V21.7563C23.6091 19.8959 26.7454 17.2355 29.1695 13.9781C29.604 14.178 29.972 14.4983 30.2299 14.901C30.4879 15.3036 30.625 15.7718 30.625 16.25V16.25Z" fill="#CC6395"/>
<path d="M18.75 5.62573V8.12573C18.7502 9.10676 18.3658 10.0488 17.6793 10.7496C16.9928 11.4504 16.059 11.8542 15.0781 11.8742C15.0523 11.8757 15.0258 11.8757 15 11.8757C14.0054 11.8757 13.0516 11.4806 12.3483 10.7774C11.6451 10.0741 11.25 9.12029 11.25 8.12573V5.62573C11.25 4.63117 11.6451 3.67734 12.3483 2.97408C13.0516 2.27082 14.0054 1.87573 15 1.87573C15.9946 1.87573 16.9484 2.27082 17.6517 2.97408C18.3549 3.67734 18.75 4.63117 18.75 5.62573V5.62573Z" fill="#FEC9A3"/>
<path d="M18.75 5.62501V8.12501C18.7502 9.10604 18.3658 10.0481 17.6793 10.7489C16.9928 11.4497 16.059 11.8534 15.0781 11.8734C15.6988 10.949 16.0294 9.86034 16.0273 8.74688V6.24688C16.0283 5.50807 15.8832 4.77635 15.6004 4.09379C15.3177 3.41122 14.9028 2.79126 14.3797 2.26954C14.2828 2.17266 14.1823 2.07917 14.0781 1.98907C14.6316 1.84898 15.2098 1.83707 15.7686 1.95426C16.3274 2.07145 16.8521 2.31464 17.3026 2.66531C17.7532 3.01597 18.1178 3.46486 18.3686 3.97776C18.6194 4.49067 18.7499 5.05406 18.75 5.62501Z" fill="#FEC093"/>
<path d="M23.125 7.5H24.375V8.75H23.125V7.5Z" fill="#7A432A"/>
<path d="M25.625 7.5H26.875V8.75H25.625V7.5Z" fill="#7A432A"/>
<path d="M13.125 6.875H14.375V8.125H13.125V6.875Z" fill="#7A432A"/>
<path d="M15.625 6.875H16.875V8.125H15.625V6.875Z" fill="#7A432A"/>
<path d="M11.25 8.125L12.3806 9.25563C12.5974 9.47231 12.8769 9.61531 13.1795 9.66438C13.482 9.71345 13.7924 9.66611 14.0666 9.52906C14.2694 9.42772 14.493 9.37497 14.7198 9.375H15.2802C15.507 9.37502 15.7306 9.42782 15.9334 9.52922C16.2076 9.66627 16.518 9.71361 16.8205 9.66453C17.1231 9.61546 17.4026 9.47246 17.6194 9.25578L18.75 8.125V11.25C18.75 11.913 18.4866 12.5489 18.0178 13.0178C17.5489 13.4866 16.913 13.75 16.25 13.75H13.75C13.087 13.75 12.4511 13.4866 11.9822 13.0178C11.5134 12.5489 11.25 11.913 11.25 11.25V8.125Z" fill="#92563A"/>
<path d="M11.25 5.71276C11.25 5.35816 11.3909 5.01808 11.6416 4.76734C11.8923 4.5166 12.2324 4.37573 12.587 4.37573H12.8094C13.0169 4.37574 13.2216 4.42408 13.4073 4.5169L14.0927 4.85956C14.2784 4.95239 14.4831 5.00072 14.6906 5.00073H15.3616C15.5355 5.00076 15.7078 4.96682 15.8687 4.90081L16.9062 4.47565C17.067 4.4097 17.2392 4.37576 17.413 4.37573C17.7676 4.37573 18.1077 4.5166 18.3584 4.76734C18.6091 5.01808 18.75 5.35816 18.75 5.71276V4.56495C18.75 4.12223 18.6407 3.68636 18.4318 3.29602C18.2229 2.90568 17.9209 2.57296 17.5525 2.32737C17.1107 2.0329 16.5917 1.87575 16.0608 1.87573H13.9392C13.4083 1.87575 12.8893 2.0329 12.4475 2.32737C12.0791 2.57296 11.7771 2.90568 11.5682 3.29602C11.3593 3.68636 11.25 4.12223 11.25 4.56495V5.71276Z" fill="#92563A"/>
<path d="M20 16.25V26.875H9.375V16.25C9.375 15.587 9.63839 14.9511 10.1072 14.4822C10.5761 14.0134 11.212 13.75 11.875 13.75H17.5C17.8284 13.7496 18.1537 13.8139 18.4572 13.9394C18.7607 14.0649 19.0365 14.249 19.2687 14.4813C19.501 14.7135 19.6851 14.9893 19.8106 15.2928C19.9361 15.5963 20.0004 15.9216 20 16.25Z" fill="#F35244"/>
<path d="M20 16.25V26.875H9.375V20.1406C12.7718 18.7047 15.8351 16.5822 18.3727 13.9062C18.8504 14.0845 19.2623 14.4045 19.5532 14.8234C19.844 15.2423 19.9999 15.74 20 16.25V16.25Z" fill="#E64D40"/>
<path d="M9.375 26.875H20V38.125H9.375V26.875Z" fill="#F35244"/>
<path d="M11.875 23.75V34.375H5V25.625H1.875V23.75C1.875 22.9212 2.20424 22.1263 2.79029 21.5403C3.37634 20.9542 4.1712 20.625 5 20.625H8.75C9.57861 20.6256 10.3731 20.9551 10.959 21.541C11.5449 22.1269 11.8744 22.9214 11.875 23.75V23.75Z" fill="#348FD9"/>
<path d="M11.875 23.7501V34.3751H5V26.9462C7.04219 25.6071 8.99688 23.7837 10.7805 21.3759C11.1241 21.6686 11.4 22.0325 11.589 22.4425C11.778 22.8525 11.8756 23.2986 11.875 23.7501V23.7501Z" fill="#3086CD"/>
<path d="M5 34.375H11.875V38.125H5V34.375Z" fill="#7A432A"/>
<path d="M11.25 31.875H4.375C3.71196 31.875 3.07607 31.6116 2.60723 31.1428C2.13839 30.6739 1.875 30.038 1.875 29.375V25.625H5.625V28.75H9.375L11.25 28.125V31.875Z" fill="#FEC9A3"/>
<path d="M37.5 38.125H27.5V21.875H35L35.2539 23.9078L36.25 31.875L37.5 38.125Z" fill="#7EB457"/>
<path d="M37.5 38.125H27.5V30.4524C30.3094 29.1727 32.9828 27.0821 35.2539 23.9078L36.25 31.875L37.5 38.125Z" fill="#79AD54"/>
<path d="M27.5 21.875V30H24.375V25C24.375 24.1712 24.7042 23.3763 25.2903 22.7903C25.8763 22.2042 26.6712 21.875 27.5 21.875Z" fill="#FEB784"/>
<path d="M35 21.875V28.75H30V31.875H35.625C36.288 31.875 36.9239 31.6116 37.3928 31.1428C37.8616 30.6739 38.125 30.038 38.125 29.375V25C38.125 24.1712 37.7958 23.3763 37.2097 22.7903C36.6237 22.2042 35.8288 21.875 35 21.875V21.875Z" fill="#FEB784"/>
<path d="M11.875 16.25V18.125C11.875 19.1196 11.4799 20.0734 10.7767 20.7766C10.0734 21.4799 9.11956 21.875 8.125 21.875C8.06797 21.875 8.01094 21.8734 7.95469 21.8711C6.99061 21.8273 6.08055 21.4134 5.41382 20.7157C4.74708 20.018 4.37501 19.0901 4.375 18.125V16.25C4.375 15.2554 4.77009 14.3016 5.47335 13.5983C6.17661 12.8951 7.13044 12.5 8.125 12.5C8.23516 12.5 8.34375 12.5047 8.45078 12.5141C9.38537 12.5957 10.2554 13.0246 10.8893 13.7162C11.5232 14.4078 11.8749 15.3119 11.875 16.25V16.25Z" fill="#FEC9A3"/>
<path d="M11.875 16.25V18.125C11.875 19.1195 11.4799 20.0734 10.7766 20.7766C10.0734 21.4799 9.11956 21.875 8.12499 21.875C8.06796 21.875 8.01093 21.8734 7.95468 21.8711C8.87863 20.841 9.38873 19.5055 9.38671 18.1218V15.6219C9.3886 14.5162 9.06292 13.4348 8.45078 12.514C9.38537 12.5957 10.2554 13.0246 10.8893 13.7162C11.5232 14.4078 11.8749 15.3118 11.875 16.25V16.25Z" fill="#FEC093"/>
<path d="M6.25 16.875H7.5V18.125H6.25V16.875Z" fill="#7A432A"/>
<path d="M8.75 16.875H10V18.125H8.75V16.875Z" fill="#7A432A"/>
<path d="M4.375 16.25V15C4.375 14.5027 4.57254 14.0258 4.92417 13.6742C5.27581 13.3225 5.75272 13.125 6.25 13.125L4.375 16.25Z" fill="#804A32"/>
<path d="M11.875 14.375V16.25L9.375 14.375H6.25C5.75272 14.375 5.27581 14.1775 4.92417 13.8258C4.57254 13.4742 4.375 12.9973 4.375 12.5V11.875H9.375C10.038 11.875 10.6739 12.1384 11.1428 12.6072C11.6116 13.0761 11.875 13.712 11.875 14.375Z" fill="#92563A"/>
<path d="M35.625 14.375H33.75V16.875H35.625V19.375C35.625 20.038 35.8884 20.6739 36.3572 21.1428C36.8261 21.6116 37.462 21.875 38.125 21.875V16.875C38.125 16.212 37.8616 15.5761 37.3928 15.1072C36.9239 14.6384 36.288 14.375 35.625 14.375Z" fill="#F7A116"/>
<path d="M35.625 17.5V19.375C35.6251 20.301 35.2825 21.1943 34.6633 21.8827C34.044 22.5712 33.1919 23.0062 32.2711 23.1039C32.1395 23.118 32.0073 23.1251 31.875 23.125C30.8804 23.125 29.9266 22.7299 29.2233 22.0266C28.5201 21.3234 28.125 20.3696 28.125 19.375V17.5C28.125 16.5054 28.5201 15.5516 29.2233 14.8483C29.9266 14.1451 30.8804 13.75 31.875 13.75C31.9664 13.75 32.057 13.7531 32.1469 13.7602C33.0918 13.8288 33.9758 14.2527 34.621 14.9465C35.2662 15.6402 35.6249 16.5526 35.625 17.5V17.5Z" fill="#FEC9A3"/>
<path d="M35.625 17.5V19.375C35.6251 20.301 35.2825 21.1942 34.6633 21.8827C34.044 22.5712 33.1919 23.0062 32.2711 23.1039C32.9872 22.1372 33.373 20.9655 33.3711 19.7625V17.2625C33.3731 15.9898 32.9413 14.7544 32.1469 13.7601C33.0918 13.8288 33.9758 14.2527 34.621 14.9464C35.2662 15.6402 35.6249 16.5525 35.625 17.5V17.5Z" fill="#FEC093"/>
<path d="M30 18.125H31.25V19.375H30V18.125Z" fill="#7A432A"/>
<path d="M32.5 18.125H33.75V19.375H32.5V18.125Z" fill="#7A432A"/>
<path d="M28.125 18.125C28.125 18.125 31.25 18.125 33.125 15.625C33.125 15.625 33.75 17.5 35.625 18.125V16.875C35.625 15.8804 35.2299 14.9266 34.5267 14.2233C33.8234 13.5201 32.8696 13.125 31.875 13.125C30.8804 13.125 29.9266 13.5201 29.2233 14.2233C28.5201 14.9266 28.125 15.8804 28.125 16.875V18.125Z" fill="#FFB531"/>
<path d="M28.125 28.75H30.625V35.625H28.125V28.75Z" fill="#FEC9A3"/>
<path d="M3.125 20H3.75C4.08152 20 4.39946 20.1317 4.63388 20.3661C4.8683 20.6005 5 20.9185 5 21.25V22.5H1.875V21.25C1.875 20.9185 2.0067 20.6005 2.24112 20.3661C2.47554 20.1317 2.79348 20 3.125 20V20Z" fill="#FEC9A3"/>
<path d="M21.25 38.125H10L11.0281 32.9828L11.25 31.875V28.75C11.25 28.087 11.5134 27.4511 11.9822 26.9822C12.4511 26.5134 13.087 26.25 13.75 26.25H17.5C17.8284 26.2495 18.1536 26.3139 18.457 26.4396C18.7604 26.5652 19.036 26.7496 19.268 26.982C19.3102 27.0242 19.35 27.0672 19.3891 27.1125C19.7839 27.5666 20.0009 28.1483 20 28.75V31.875L21.25 38.125Z" fill="#F59898"/>
<path d="M21.25 38.125H10L11.0281 32.9829C13.9969 31.8946 16.8695 30.0258 19.3891 27.1125C19.7839 27.5666 20.0009 28.1483 20 28.75V31.875L21.25 38.125Z" fill="#ED9191"/>
<path d="M11.875 35.625H14.375L13.75 29.375H11.25L11.875 35.625Z" fill="#FEC9A3"/>
<path d="M19.375 35.625H16.875L17.5 29.375H20L19.375 35.625Z" fill="#FEB784"/>
<path d="M9.375 25.625V21.875C9.375 21.212 9.63839 20.5761 10.1072 20.1072C10.5761 19.6384 11.212 19.375 11.875 19.375H13.75V21.875H11.875V23.125C11.875 23.788 11.6116 24.4239 11.1428 24.8928C10.6739 25.3616 10.038 25.625 9.375 25.625Z" fill="#F57707"/>
<path d="M19.375 21.25V22.5C19.375 23.4946 18.9799 24.4484 18.2767 25.1517C17.5734 25.8549 16.6196 26.25 15.625 26.25C14.6304 26.25 13.6766 25.8549 12.9733 25.1517C12.2701 24.4484 11.875 23.4946 11.875 22.5V21.25C11.875 20.2554 12.2701 19.3016 12.9733 18.5983C13.6766 17.8951 14.6304 17.5 15.625 17.5C16.6196 17.5 17.5734 17.8951 18.2767 18.5983C18.9799 19.3016 19.375 20.2554 19.375 21.25V21.25Z" fill="#FEC9A3"/>
<path d="M19.375 21.2499V22.4999C19.3749 23.2756 19.1345 24.0321 18.6868 24.6654C18.2391 25.2988 17.6061 25.7778 16.875 26.0367C17.2438 25.274 17.4348 24.4377 17.4336 23.5906V21.0906C17.4355 19.7967 16.9894 18.5421 16.1711 17.5398C17.0614 17.671 17.8748 18.1179 18.463 18.799C19.0512 19.4801 19.3749 20.35 19.375 21.2499V21.2499Z" fill="#FEC093"/>
<path d="M13.75 21.875H15V23.125H13.75V21.875Z" fill="#7A432A"/>
<path d="M16.25 21.875H17.5V23.125H16.25V21.875Z" fill="#7A432A"/>
<path d="M19.375 21.25H18.827C18.0909 21.25 17.376 21.004 16.7958 20.551C16.2156 20.098 15.8035 19.4641 15.625 18.75C15.4465 19.4641 15.0344 20.098 14.4542 20.551C13.874 21.004 13.1591 21.25 12.423 21.25H11.875V20.625C11.875 19.6304 12.2701 18.6766 12.9733 17.9733C13.6766 17.2701 14.6304 16.875 15.625 16.875C16.6196 16.875 17.5734 17.2701 18.2767 17.9733C18.9799 18.6766 19.375 19.6304 19.375 20.625V21.25Z" fill="#F98500"/>
<path d="M28.75 19.375V20.625C28.75 21.5737 28.3904 22.4872 27.7437 23.1813C27.097 23.8754 26.2112 24.2986 25.2648 24.3656C25.1773 24.3719 25.0891 24.375 25 24.375C24.0054 24.375 23.0516 23.9799 22.3483 23.2767C21.6451 22.5734 21.25 21.6196 21.25 20.625V19.375C21.25 18.3804 21.6451 17.4266 22.3483 16.7234C23.0516 16.0201 24.0054 15.625 25 15.625C25.1271 15.6248 25.2541 15.6313 25.3805 15.6445C26.3043 15.7388 27.1604 16.1724 27.7829 16.8616C28.4053 17.5507 28.75 18.4463 28.75 19.375V19.375Z" fill="#FEC9A3"/>
<path d="M28.75 19.375V20.625C28.75 21.5737 28.3904 22.4872 27.7437 23.1813C27.097 23.8754 26.2112 24.2986 25.2648 24.3656C25.9158 23.4268 26.2637 22.3112 26.2617 21.1688V18.6688C26.2634 17.5971 25.9575 16.5475 25.3805 15.6445C26.3043 15.7388 27.1604 16.1724 27.7828 16.8616C28.4053 17.5507 28.7499 18.4463 28.75 19.375V19.375Z" fill="#FEC093"/>
<path d="M26.875 16.25C26.875 16.25 26.25 18.75 28.75 19.375C28.75 18.3804 28.3549 17.4266 27.6517 16.7233C26.9484 16.0201 25.9946 15.625 25 15.625C24.114 15.6251 23.2566 15.9389 22.5799 16.5108C21.9032 17.0827 21.4508 17.8757 21.303 18.7493C21.802 18.7396 25.7056 18.5887 26.875 16.25Z" fill="#92563A"/>
<path d="M23.125 20H24.375V21.25H23.125V20Z" fill="#7A432A"/>
<path d="M25.625 20H26.875V21.25H25.625V20Z" fill="#7A432A"/>
<path d="M30.625 26.875V28.75H28.125V32.5H21.875V28.75H19.375V26.875C19.375 26.212 19.6384 25.5761 20.1072 25.1072C20.5761 24.6384 21.212 24.375 21.875 24.375H28.125C28.4534 24.3745 28.7788 24.4388 29.0823 24.5643C29.3859 24.6897 29.6617 24.8738 29.8939 25.1061C30.1262 25.3383 30.3103 25.6141 30.4357 25.9177C30.5612 26.2212 30.6255 26.5466 30.625 26.875V26.875Z" fill="#348FD9"/>
<path d="M30.625 26.875V28.75H28.125V32.5H21.875V29.932C24.4477 28.8031 26.9125 27.0727 29.0969 24.5703C29.5499 24.7618 29.9364 25.0825 30.2082 25.4924C30.4799 25.9023 30.6249 26.3832 30.625 26.875V26.875Z" fill="#3086CD"/>
<path d="M21.875 32.5H28.125V38.125H21.875V32.5Z" fill="#7A432A"/>
<path d="M24.375 34.375H25.625V38.125H24.375V34.375Z" fill="#5C2E1A"/>
<path d="M19.375 28.75H21.875V35.625H19.375V28.75Z" fill="#FEC9A3"/>
<path d="M22.5 27.5C22.5 27.1548 22.2202 26.875 21.875 26.875C21.5298 26.875 21.25 27.1548 21.25 27.5V28.75C21.25 29.0952 21.5298 29.375 21.875 29.375C22.2202 29.375 22.5 29.0952 22.5 28.75V27.5Z" fill="#2A71AD"/>
<path d="M28.75 27.5C28.75 27.1548 28.4702 26.875 28.125 26.875C27.7798 26.875 27.5 27.1548 27.5 27.5V28.75C27.5 29.0952 27.7798 29.375 28.125 29.375C28.4702 29.375 28.75 29.0952 28.75 28.75V27.5Z" fill="#2A71AD"/>
<path d="M2.0582 43.3809H6.33555V44.9805H3.68125V46.5449H6.33555V48.1211H3.68125V52H2.0582V43.3809ZM12.5755 45.625H14.1693V52H12.5755V51.3262C12.263 51.623 11.9486 51.8379 11.6322 51.9707C11.3197 52.0996 10.9798 52.1641 10.6127 52.1641C9.78844 52.1641 9.07555 51.8457 8.47398 51.209C7.87242 50.5684 7.57164 49.7734 7.57164 48.8242C7.57164 47.8398 7.86266 47.0332 8.44469 46.4043C9.02672 45.7754 9.73375 45.4609 10.5658 45.4609C10.9486 45.4609 11.308 45.5332 11.6439 45.6777C11.9798 45.8223 12.2904 46.0391 12.5755 46.3281V45.625ZM10.8939 46.9375C10.3978 46.9375 9.9857 47.1133 9.65758 47.4648C9.32945 47.8125 9.16539 48.2598 9.16539 48.8066C9.16539 49.3574 9.33141 49.8105 9.66344 50.166C9.99937 50.5215 10.4115 50.6992 10.8998 50.6992C11.4037 50.6992 11.8216 50.5254 12.1537 50.1777C12.4857 49.8262 12.6517 49.3672 12.6517 48.8008C12.6517 48.2461 12.4857 47.7969 12.1537 47.4531C11.8216 47.1094 11.4017 46.9375 10.8939 46.9375ZM16.0148 45.625H17.6202V46.3574C17.8937 46.0566 18.1964 45.832 18.5284 45.6836C18.8644 45.5352 19.2296 45.4609 19.6241 45.4609C20.0226 45.4609 20.382 45.5586 20.7023 45.7539C21.0226 45.9492 21.2804 46.2344 21.4757 46.6094C21.7296 46.2344 22.0402 45.9492 22.4073 45.7539C22.7784 45.5586 23.1827 45.4609 23.6202 45.4609C24.0734 45.4609 24.4718 45.5664 24.8155 45.7773C25.1593 45.9883 25.4054 46.2637 25.5538 46.6035C25.7062 46.9434 25.7823 47.4961 25.7823 48.2617V52H24.171V48.7656C24.171 48.043 24.0812 47.5547 23.9015 47.3008C23.7218 47.043 23.4523 46.9141 23.0929 46.9141C22.8195 46.9141 22.5734 46.9922 22.3546 47.1484C22.1398 47.3047 21.9796 47.5215 21.8741 47.7988C21.7687 48.0723 21.7159 48.5137 21.7159 49.123V52H20.1046V48.9121C20.1046 48.3418 20.0616 47.9297 19.9757 47.6758C19.8937 47.418 19.7687 47.2266 19.6007 47.1016C19.4327 46.9766 19.2296 46.9141 18.9913 46.9141C18.7257 46.9141 18.4835 46.9941 18.2648 47.1543C18.0499 47.3105 17.8878 47.5312 17.7784 47.8164C17.673 48.1016 17.6202 48.5508 17.6202 49.1641V52H16.0148V45.625ZM28.1786 43C28.4598 43 28.7001 43.1016 28.8993 43.3047C29.1024 43.5078 29.204 43.7539 29.204 44.043C29.204 44.3281 29.1044 44.5723 28.9052 44.7754C28.7059 44.9746 28.4677 45.0742 28.1903 45.0742C27.9052 45.0742 27.661 44.9727 27.4579 44.7695C27.2587 44.5625 27.1591 44.3125 27.1591 44.0195C27.1591 43.7383 27.2587 43.498 27.4579 43.2988C27.6571 43.0996 27.8973 43 28.1786 43ZM27.3759 45.625H28.9813V52H27.3759V45.625ZM30.5045 43.1641H32.1041V52H30.5045V43.1641ZM33.0883 45.625H34.723L36.3813 49.627L38.2094 45.625H39.85L35.8539 54.332H34.2016L35.5141 51.5254L33.0883 45.625Z" fill="black"/>
</svg>
