<svg width="40" height="55" viewBox="0 0 40 55" fill="none" xmlns="http://www.w3.org/2000/svg">
<g clip-path="url(#clip0)">
<path d="M14.1005 32.6801C14.1005 32.6801 12.2045 33.2451 11.5541 32.5946C10.9036 31.9442 11.5541 30.2756 11.5541 30.2756L14.775 28.9575L14.1005 32.6801Z" fill="#F1B986"/>
<path d="M28.4458 32.5947C28.1682 32.8724 27.6644 32.9287 27.1766 32.9021C26.5223 32.8659 25.8994 32.68 25.8994 32.68L25.1171 29.4092L25.0688 29.208L28.4458 30.2752C28.4458 30.2752 29.0962 31.9444 28.4458 32.5947V32.5947Z" fill="#F1D0A5"/>
<path d="M27.1766 32.9022C26.5223 32.866 25.8994 32.6801 25.8994 32.6801L25.1171 29.4092L27.0237 30.2753C27.0237 31.0326 26.5665 32.2036 27.1766 32.9022V32.9022Z" fill="#F1B986"/>
<path d="M25.8648 30.275C25.8648 30.275 26.265 34.8364 24.9851 38.1162H20.9851C20.9851 38.1162 21.9884 33.4667 20.0004 31.4779C18.0116 33.4667 19.0148 38.1162 19.0148 38.1162H15.0148C13.735 34.8364 14.1351 30.275 14.1351 30.275H11.5537C11.5537 23.0586 14.484 20.6753 14.9916 20.316H25.0084C25.516 20.6753 28.4462 23.0586 28.4462 30.275H25.8648Z" fill="#B9E4EF"/>
<path d="M14.2394 28.9575C14.4128 27.3456 14.8907 26.3897 14.8907 26.3897L15.1848 30.2497" fill="#7AD0DF"/>
<path d="M19.3968 25.8424H20.604V30.2089H19.3968V25.8424Z" fill="#7AD0DF"/>
<path d="M27.0236 30.2751H25.8648C25.8648 28.5148 25.2249 26.8076 25.2249 26.8076C25.2249 26.8076 26.8295 27.3729 27.0236 30.2751V30.2751Z" fill="#7AD0DF"/>
<path d="M16.3605 20.316C15.168 21.9254 12.9956 25.5189 13.0526 30.275H11.5537C11.5537 23.0586 14.484 20.6753 14.9916 20.316H16.3605Z" fill="#7AD0DF"/>
<path d="M24.9843 38.1163L24.2571 39.2587L20.9844 38.1163C20.9844 38.1163 21.9876 33.4667 19.9996 31.478C18.0117 33.4667 19.0149 38.1163 19.0149 38.1163L17.2985 38.5896L15.0141 38.1163C13.7342 34.8364 14.1344 30.2751 14.1344 30.2751C14.1344 29.8236 14.1769 29.3746 14.2395 28.9575H25.7599C25.8224 29.3746 25.8649 29.8236 25.8649 30.2751C25.8649 30.2751 26.2642 34.8364 24.9843 38.1163V38.1163Z" fill="#665E66"/>
<path d="M16.1985 38.1163L15.3237 38.968L15.0141 38.1163C13.7343 34.8364 14.1344 30.2751 14.1344 30.2751C14.1344 29.8236 14.1769 29.3746 14.2395 28.9575H16.1376C15.735 30.4635 15.2369 33.5903 16.1985 38.1163V38.1163Z" fill="#454045"/>
<path d="M22.0284 38.1163H20.9844C20.9844 38.1163 21.9876 33.4668 19.9996 31.478C22.0284 31.478 23.0717 34.9712 22.0284 38.1163V38.1163Z" fill="#454045"/>
<path d="M21.2887 22.7474H18.7112L18.2549 19.6524H21.7451L21.2887 22.7474Z" fill="#C32430"/>
<path d="M29.1531 11.1913L16.8254 11.2441L10.7037 11.2699C10.2371 7.00901 8.88258 1.47558 13.8589 0.489405C15.0537 0.252452 16.1296 0.111827 17.0966 0.0458113C23.5741 -0.393798 25.1853 2.53105 25.1853 2.53105C25.1853 2.53105 26.3577 1.50128 27.6323 1.60628C28.093 1.64394 28.5676 1.83073 29.0046 2.26769C31.3096 4.57261 29.1531 11.1913 29.1531 11.1913V11.1913Z" fill="#AA593D"/>
<path d="M27.6323 1.60554C26.1181 2.64585 25.1273 5.75874 24.6686 7.53312C24.2198 5.72577 24.7683 3.73632 25.1855 2.53038C25.1854 2.5303 26.3577 1.50054 27.6323 1.60554V1.60554Z" fill="#934D36"/>
<path d="M16.143 6.65108L16.8255 11.2433L10.7038 11.269C10.2372 7.00819 8.88267 1.47475 13.859 0.488577C15.0538 0.251624 16.1297 0.110999 17.0967 0.0449829C17.0967 0.0456079 17.0961 0.0456079 17.0961 0.0456079C14.6043 1.57834 15.3739 4.3085 16.143 6.65108V6.65108Z" fill="#934D36"/>
<path d="M28.3374 14.6331H28.3491C29.3517 14.6331 30.1641 13.82 30.1641 12.8181C30.1641 11.8155 29.3517 11.0024 28.3491 11.0024C28.336 11.0024 28.323 11.0024 28.3099 11.0031H11.69C11.677 11.0024 11.6639 11.0024 11.6509 11.0024C10.6483 11.0024 9.83588 11.8154 9.83588 12.8181C9.83588 13.82 10.6483 14.6331 11.6509 14.6331H11.6625" fill="#F1B986"/>
<path d="M28.3551 13.2434C28.3551 14.1992 28.3306 15.1557 28.2818 16.1114C28.1597 18.501 26.2474 20.4033 23.8566 20.5162C22.1853 20.5954 20.5134 20.6225 18.842 20.5987H18.8413C17.9416 20.5861 17.0426 20.5585 16.1429 20.5162C13.7527 20.4033 11.8405 18.501 11.7177 16.1114C11.6306 14.4084 11.6213 12.7061 11.6893 11.0031H11.6899C12.622 10.6578 13.1764 9.58457 13.5058 8.39113C13.8438 7.16668 15.0167 6.49738 16.1428 6.65113C16.5818 6.71121 17.0141 6.89668 17.3864 7.22277C18.1343 7.87754 19.067 8.20496 19.9997 8.20496C20.9324 8.20496 21.8657 7.87754 22.6136 7.22277C23.0769 6.81683 23.6321 6.62933 24.1787 6.62933C25.1985 6.62933 26.188 7.28285 26.4942 8.39113C26.823 9.58457 27.3774 10.6578 28.3101 11.0031C28.3406 11.7503 28.3551 12.4968 28.3551 13.2434V13.2434Z" fill="#F1D0A5"/>
<path d="M18.8413 20.5986C17.9416 20.586 17.0426 20.5584 16.1429 20.5161C13.7527 20.4032 11.8405 18.5009 11.7177 16.1114C11.6306 14.4083 11.6213 12.706 11.6893 11.003H11.6899C12.622 10.6578 13.1764 9.58447 13.5058 8.39104C13.8438 7.16658 15.0167 6.49729 16.1428 6.65104C15.2881 14.2836 16.143 20.5148 18.8413 20.5986Z" fill="#F1B986"/>
<path d="M16.1353 11.0529C15.7171 11.0529 15.3769 11.5587 15.3769 12.1804C15.3769 12.8022 15.7171 13.308 16.1353 13.308C16.5535 13.308 16.8937 12.8022 16.8937 12.1804C16.8937 11.5587 16.5535 11.0529 16.1353 11.0529Z" fill="#454045"/>
<path d="M23.8647 11.0529C23.4465 11.0529 23.1063 11.5587 23.1063 12.1804C23.1063 12.8022 23.4465 13.308 23.8647 13.308C24.2829 13.308 24.6231 12.8022 24.6231 12.1804C24.6231 11.5587 24.2829 11.0529 23.8647 11.0529Z" fill="#454045"/>
<path d="M18.7112 22.7474H21.2887L21.7451 25.8424L20 27.0936L18.2549 25.8424L18.7112 22.7474Z" fill="#DA4A54"/>
<path d="M13.8149 40H19.015V38.1166H15.6983C14.6582 38.1166 13.8149 38.9599 13.8149 40Z" fill="#AA593D"/>
<path d="M16.8991 38.1163C15.8591 38.1163 15.0154 38.9599 15.0154 40H13.8149C13.8149 38.9599 14.6577 38.1163 15.6978 38.1163H16.8991Z" fill="#934D36"/>
<path d="M26.1851 40H20.985V38.1166H24.3017C25.3418 38.1166 26.1851 38.9599 26.1851 40Z" fill="#AA593D"/>
<path d="M15.9317 17.6067H17.952C19.083 17.6067 19.9999 16.6899 19.9999 15.5589V14.7697H17.9796C16.8486 14.7697 15.9317 15.6866 15.9317 16.8176V17.6067Z" fill="#934D36"/>
<path d="M24.0679 17.6067H22.0476C20.9166 17.6067 19.9998 16.6899 19.9998 15.5589V14.7697H22.02C23.151 14.7697 24.0679 15.6866 24.0679 16.8176V17.6067Z" fill="#AA593D"/>
</g>
<path d="M3.36309 45.0991H7.28399V46.5654H4.85088V47.9995H7.28399V49.4443H4.85088V53H3.36309V45.0991ZM13.004 47.1562H14.4649V53H13.004V52.3823C12.7175 52.6545 12.4293 52.8514 12.1392 52.9731C11.8528 53.0913 11.5413 53.1504 11.2047 53.1504C10.4491 53.1504 9.79565 52.8586 9.24422 52.2749C8.69279 51.6877 8.41707 50.959 8.41707 50.0889C8.41707 49.1865 8.68384 48.4471 9.21736 47.8706C9.75089 47.2941 10.399 47.0059 11.1617 47.0059C11.5126 47.0059 11.842 47.0721 12.15 47.2046C12.4579 47.3371 12.7426 47.5358 13.004 47.8008V47.1562ZM11.4625 48.3594C11.0077 48.3594 10.63 48.5205 10.3292 48.8428C10.0284 49.1615 9.87801 49.5715 9.87801 50.0728C9.87801 50.5776 10.0302 50.993 10.3346 51.3188C10.6425 51.6447 11.0203 51.8076 11.4679 51.8076C11.9298 51.8076 12.3129 51.6483 12.6173 51.3296C12.9216 51.0073 13.0738 50.5866 13.0738 50.0674C13.0738 49.5589 12.9216 49.1471 12.6173 48.832C12.3129 48.5169 11.928 48.3594 11.4625 48.3594ZM16.3446 45.0024H17.8055V47.1562H18.6756V48.4185H17.8055V53H16.3446V48.4185H15.5926V47.1562H16.3446V45.0024ZM19.6906 44.9004H21.1461V47.7471C21.4326 47.5 21.7208 47.3156 22.0109 47.1938C22.3009 47.0685 22.5945 47.0059 22.8917 47.0059C23.4718 47.0059 23.9606 47.2064 24.358 47.6074C24.6982 47.9548 24.8683 48.465 24.8683 49.1382V53H23.4235V50.438C23.4235 49.7612 23.3913 49.3029 23.3268 49.063C23.2623 48.8231 23.1513 48.644 22.9938 48.5259C22.8398 48.4077 22.6482 48.3486 22.4191 48.3486C22.1219 48.3486 21.8659 48.4471 21.651 48.644C21.4398 48.841 21.2929 49.1095 21.2106 49.4497C21.1676 49.6252 21.1461 50.0262 21.1461 50.6528V53H19.6906V44.9004ZM32.3661 50.5024H27.6557C27.7237 50.9178 27.9045 51.249 28.1982 51.4961C28.4954 51.7396 28.8731 51.8613 29.3315 51.8613C29.8793 51.8613 30.3502 51.6698 30.7441 51.2866L31.9794 51.8667C31.6715 52.3035 31.3027 52.6276 30.873 52.8389C30.4433 53.0465 29.933 53.1504 29.3422 53.1504C28.4255 53.1504 27.679 52.8621 27.1025 52.2856C26.526 51.7056 26.2377 50.9805 26.2377 50.1104C26.2377 49.2188 26.5242 48.4793 27.0971 47.8921C27.6736 47.3013 28.3951 47.0059 29.2616 47.0059C30.1819 47.0059 30.9303 47.3013 31.5068 47.8921C32.0833 48.4793 32.3715 49.2563 32.3715 50.2231L32.3661 50.5024ZM30.8945 49.3477C30.7978 49.0218 30.6062 48.7568 30.3197 48.5527C30.0369 48.3486 29.7074 48.2466 29.3315 48.2466C28.9233 48.2466 28.5652 48.3612 28.2572 48.5903C28.0639 48.7336 27.8849 48.986 27.7201 49.3477H30.8945ZM33.4348 47.1562H34.6916V47.8921C34.8277 47.6021 35.0085 47.3818 35.2341 47.2314C35.4597 47.0811 35.7067 47.0059 35.9753 47.0059C36.1651 47.0059 36.3638 47.056 36.5715 47.1562L36.1149 48.4185C35.9431 48.3325 35.8016 48.2896 35.6906 48.2896C35.465 48.2896 35.2735 48.4292 35.1159 48.7085C34.9619 48.9878 34.885 49.5356 34.885 50.3521L34.8903 50.6367V53H33.4348V47.1562Z" fill="black"/>
<defs>
<clipPath id="clip0">
<rect width="40" height="40" fill="white"/>
</clipPath>
</defs>
</svg>
