<svg width="79" height="56" viewBox="0 0 79 56" fill="none" xmlns="http://www.w3.org/2000/svg">
<path d="M9.6191 46.3882L8.561 47.4355C7.8914 46.7266 7.1108 46.3721 6.2192 46.3721C5.44218 46.3721 4.79049 46.6299 4.26412 47.1455C3.74134 47.6611 3.47994 48.2878 3.47994 49.0254C3.47994 49.7881 3.75208 50.4344 4.29635 50.9644C4.84062 51.4943 5.51201 51.7593 6.31051 51.7593C6.82971 51.7593 7.26656 51.6501 7.62106 51.4316C7.97913 51.2132 8.26738 50.8713 8.4858 50.4058H6.19772V48.9932H10.1723L10.1831 49.3262C10.1831 50.0173 10.004 50.6725 9.64596 51.292C9.28789 51.9115 8.82418 52.3841 8.25484 52.71C7.68551 53.0358 7.0177 53.1987 6.25143 53.1987C5.43144 53.1987 4.69918 53.0215 4.05465 52.667C3.4137 52.3089 2.90524 51.8005 2.52926 51.1416C2.15686 50.4827 1.97066 49.772 1.97066 49.0093C1.97066 47.9637 2.31621 47.0542 3.00729 46.2808C3.82727 45.3605 4.89433 44.9004 6.20846 44.9004C6.89596 44.9004 7.5387 45.0275 8.13668 45.2817C8.64156 45.4966 9.1357 45.8654 9.6191 46.3882ZM11.2786 47.1562H12.5354V47.8921C12.6715 47.6021 12.8523 47.3818 13.0779 47.2314C13.3035 47.0811 13.5505 47.0059 13.8191 47.0059C14.0089 47.0059 14.2076 47.056 14.4153 47.1562L13.9587 48.4185C13.7869 48.3325 13.6454 48.2896 13.5344 48.2896C13.3088 48.2896 13.1173 48.4292 12.9597 48.7085C12.8057 48.9878 12.7288 49.5356 12.7288 50.3521L12.7341 50.6367V53H11.2786V47.1562ZM19.6841 47.1562H21.145V53H19.6841V52.3823C19.3976 52.6545 19.1094 52.8514 18.8194 52.9731C18.5329 53.0913 18.2214 53.1504 17.8848 53.1504C17.1293 53.1504 16.4758 52.8586 15.9243 52.2749C15.3729 51.6877 15.0972 50.959 15.0972 50.0889C15.0972 49.1865 15.364 48.4471 15.8975 47.8706C16.431 47.2941 17.0791 47.0059 17.8418 47.0059C18.1927 47.0059 18.5222 47.0721 18.8301 47.2046C19.138 47.3371 19.4227 47.5358 19.6841 47.8008V47.1562ZM18.1426 48.3594C17.6878 48.3594 17.3101 48.5205 17.0093 48.8428C16.7085 49.1615 16.5581 49.5715 16.5581 50.0728C16.5581 50.5776 16.7103 50.993 17.0147 51.3188C17.3226 51.6447 17.7004 51.8076 18.148 51.8076C18.6099 51.8076 18.993 51.6483 19.2974 51.3296C19.6017 51.0073 19.7539 50.5866 19.7539 50.0674C19.7539 49.5589 19.6017 49.1471 19.2974 48.832C18.993 48.5169 18.6081 48.3594 18.1426 48.3594ZM22.8475 47.1562H24.3084V47.7524C24.6414 47.4731 24.9422 47.2798 25.2107 47.1724C25.4829 47.0614 25.7604 47.0059 26.0433 47.0059C26.6233 47.0059 27.1157 47.2082 27.5203 47.6128C27.8605 47.9565 28.0306 48.465 28.0306 49.1382V53H26.5804V50.438C26.5804 49.7397 26.5481 49.276 26.4837 49.0469C26.4228 48.8177 26.3136 48.644 26.1561 48.5259C26.0021 48.4041 25.8105 48.3433 25.5813 48.3433C25.2841 48.3433 25.0281 48.4435 24.8133 48.644C24.602 48.841 24.4552 49.1149 24.3729 49.4658C24.3299 49.6484 24.3084 50.0441 24.3084 50.6528V53H22.8475V47.1562ZM33.9923 44.9004H35.4532V53H33.9923V52.3823C33.7058 52.6545 33.4176 52.8514 33.1275 52.9731C32.8411 53.0913 32.5295 53.1504 32.1929 53.1504C31.4374 53.1504 30.7839 52.8586 30.2325 52.2749C29.6811 51.6877 29.4054 50.959 29.4054 50.0889C29.4054 49.1865 29.6721 48.4471 30.2056 47.8706C30.7392 47.2941 31.3873 47.0059 32.15 47.0059C32.5009 47.0059 32.8303 47.0721 33.1383 47.2046C33.4462 47.3371 33.7309 47.5358 33.9923 47.8008V44.9004ZM32.4508 48.3594C31.996 48.3594 31.6182 48.5205 31.3175 48.8428C31.0167 49.1615 30.8663 49.5715 30.8663 50.0728C30.8663 50.5776 31.0185 50.993 31.3228 51.3188C31.6308 51.6447 32.0085 51.8076 32.4561 51.8076C32.918 51.8076 33.3012 51.6483 33.6055 51.3296C33.9099 51.0073 34.0621 50.5866 34.0621 50.0674C34.0621 49.5589 33.9099 49.1471 33.6055 48.832C33.3012 48.5169 32.9163 48.3594 32.4508 48.3594ZM38.6112 47.1562V47.8008C38.8762 47.5358 39.1626 47.3371 39.4706 47.2046C39.7785 47.0721 40.1079 47.0059 40.4588 47.0059C41.2215 47.0059 41.8697 47.2941 42.4032 47.8706C42.9367 48.4471 43.2035 49.1865 43.2035 50.0889C43.2035 50.959 42.9278 51.6877 42.3763 52.2749C41.8249 52.8586 41.1714 53.1504 40.4159 53.1504C40.0793 53.1504 39.766 53.0913 39.4759 52.9731C39.1859 52.8514 38.8976 52.6545 38.6112 52.3823V55.1377H37.1556V47.1562H38.6112ZM40.1527 48.3594C39.6908 48.3594 39.3076 48.5169 39.0033 48.832C38.6989 49.1471 38.5467 49.5589 38.5467 50.0674C38.5467 50.5866 38.6989 51.0073 39.0033 51.3296C39.3076 51.6483 39.6908 51.8076 40.1527 51.8076C40.6003 51.8076 40.9763 51.6447 41.2806 51.3188C41.5886 50.993 41.7425 50.5776 41.7425 50.0728C41.7425 49.5715 41.5921 49.1615 41.2914 48.8428C40.9906 48.5205 40.611 48.3594 40.1527 48.3594ZM48.9557 47.1562H50.4166V53H48.9557V52.3823C48.6692 52.6545 48.381 52.8514 48.091 52.9731C47.8045 53.0913 47.493 53.1504 47.1564 53.1504C46.4009 53.1504 45.7474 52.8586 45.1959 52.2749C44.6445 51.6877 44.3688 50.959 44.3688 50.0889C44.3688 49.1865 44.6356 48.4471 45.1691 47.8706C45.7026 47.2941 46.3507 47.0059 47.1134 47.0059C47.4643 47.0059 47.7938 47.0721 48.1017 47.2046C48.4096 47.3371 48.6943 47.5358 48.9557 47.8008V47.1562ZM47.4142 48.3594C46.9594 48.3594 46.5817 48.5205 46.2809 48.8428C45.9801 49.1615 45.8297 49.5715 45.8297 50.0728C45.8297 50.5776 45.9819 50.993 46.2863 51.3188C46.5942 51.6447 46.972 51.8076 47.4196 51.8076C47.8815 51.8076 48.2646 51.6483 48.569 51.3296C48.8733 51.0073 49.0255 50.5866 49.0255 50.0674C49.0255 49.5589 48.8733 49.1471 48.569 48.832C48.2646 48.5169 47.8797 48.3594 47.4142 48.3594ZM51.7753 47.1562H53.0322V47.8921C53.1682 47.6021 53.349 47.3818 53.5746 47.2314C53.8002 47.0811 54.0473 47.0059 54.3158 47.0059C54.5056 47.0059 54.7044 47.056 54.912 47.1562L54.4555 48.4185C54.2836 48.3325 54.1422 48.2896 54.0312 48.2896C53.8056 48.2896 53.614 48.4292 53.4565 48.7085C53.3025 48.9878 53.2255 49.5356 53.2255 50.3521L53.2309 50.6367V53H51.7753V47.1562ZM61.717 50.5024H57.0065C57.0746 50.9178 57.2554 51.249 57.549 51.4961C57.8462 51.7396 58.224 51.8613 58.6823 51.8613C59.2302 51.8613 59.701 51.6698 60.0949 51.2866L61.3303 51.8667C61.0223 52.3035 60.6535 52.6276 60.2238 52.8389C59.7941 53.0465 59.2839 53.1504 58.6931 53.1504C57.7764 53.1504 57.0298 52.8621 56.4533 52.2856C55.8768 51.7056 55.5886 50.9805 55.5886 50.1104C55.5886 49.2188 55.875 48.4793 56.4479 47.8921C57.0244 47.3013 57.746 47.0059 58.6125 47.0059C59.5327 47.0059 60.2811 47.3013 60.8576 47.8921C61.4341 48.4793 61.7224 49.2563 61.7224 50.2231L61.717 50.5024ZM60.2453 49.3477C60.1486 49.0218 59.9571 48.7568 59.6706 48.5527C59.3877 48.3486 59.0583 48.2466 58.6823 48.2466C58.2741 48.2466 57.916 48.3612 57.6081 48.5903C57.4147 48.7336 57.2357 48.986 57.071 49.3477H60.2453ZM63.1294 47.1562H64.5903V47.7524C64.9233 47.4731 65.2241 47.2798 65.4927 47.1724C65.7648 47.0614 66.0423 47.0059 66.3252 47.0059C66.9053 47.0059 67.3976 47.2082 67.8022 47.6128C68.1424 47.9565 68.3125 48.465 68.3125 49.1382V53H66.8623V50.438C66.8623 49.7397 66.8301 49.276 66.7656 49.0469C66.7047 48.8177 66.5955 48.644 66.438 48.5259C66.284 48.4041 66.0924 48.3433 65.8633 48.3433C65.5661 48.3433 65.31 48.4435 65.0952 48.644C64.8839 48.841 64.7371 49.1149 64.6548 49.4658C64.6118 49.6484 64.5903 50.0441 64.5903 50.6528V53H63.1294V47.1562ZM70.1331 45.0024H71.594V47.1562H72.4641V48.4185H71.594V53H70.1331V48.4185H69.3811V47.1562H70.1331V45.0024ZM77.0508 47.9727L76.1431 48.8804C75.7743 48.5151 75.4395 48.3325 75.1387 48.3325C74.974 48.3325 74.8451 48.3683 74.752 48.4399C74.6589 48.508 74.6123 48.5939 74.6123 48.6978C74.6123 48.7765 74.641 48.8499 74.6983 48.918C74.7592 48.9824 74.906 49.0719 75.1387 49.1865L75.6758 49.4551C76.2416 49.7344 76.6301 50.019 76.8413 50.3091C77.0526 50.5991 77.1582 50.9393 77.1582 51.3296C77.1582 51.8488 76.9667 52.2821 76.5835 52.6294C76.204 52.9767 75.6937 53.1504 75.0528 53.1504C74.2006 53.1504 73.5202 52.8174 73.0118 52.1514L73.9141 51.1685C74.086 51.369 74.2865 51.5319 74.5157 51.6572C74.7484 51.779 74.9543 51.8398 75.1333 51.8398C75.3267 51.8398 75.4825 51.7933 75.6006 51.7002C75.7188 51.6071 75.7779 51.4997 75.7779 51.3779C75.7779 51.1523 75.5648 50.9321 75.1387 50.7173L74.6446 50.4702C73.6993 49.994 73.2266 49.3978 73.2266 48.6816C73.2266 48.2197 73.4038 47.8258 73.7583 47.5C74.1164 47.1706 74.573 47.0059 75.128 47.0059C75.5075 47.0059 75.8638 47.09 76.1968 47.2583C76.5334 47.423 76.8181 47.6611 77.0508 47.9727Z" fill="black"/>
<g clip-path="url(#clip0)">
<path d="M41.1882 32.6801C41.1882 32.6801 39.2923 33.2451 38.6418 32.5946C37.9914 31.9442 38.6418 30.2756 38.6418 30.2756L41.8628 28.9575L41.1882 32.6801Z" fill="#F1B986"/>
<path d="M55.5335 32.5947C55.2043 32.9239 54.5541 32.9416 53.9939 32.8789C53.4483 32.8177 52.987 32.68 52.987 32.68L52.1565 29.208L53.2132 29.542L55.5335 30.2752C55.5335 30.2752 56.1846 31.9444 55.5335 32.5947V32.5947Z" fill="#F1D0A5"/>
<path d="M53.9938 32.8789C53.4482 32.8177 52.9869 32.68 52.9869 32.68L52.1564 29.208L53.2131 29.542L54.1113 30.2752C54.1113 30.9086 53.6156 32.107 53.9938 32.8789V32.8789Z" fill="#F1B986"/>
<path d="M52.9527 30.275C52.9527 30.275 49.0762 33.4667 47.0882 31.4779C45.0995 33.4667 41.223 30.275 41.223 30.275H38.6416C38.6416 23.0586 41.5718 20.6753 42.0794 20.316H52.0962C52.6038 20.6753 55.534 23.0586 55.534 30.275H52.9527Z" fill="#8078BC"/>
<path d="M41.3272 28.9576C41.5006 27.3457 41.9785 26.3898 41.9785 26.3898L42.2726 30.2498" fill="#5E54AC"/>
<path d="M46.4846 19.8549H47.6919V29.7096H46.4846V19.8549Z" fill="#5E54AC"/>
<path d="M54.1114 30.2751H52.9527C52.9527 28.5149 52.3127 26.8076 52.3127 26.8076C52.3127 26.8076 53.9174 27.373 54.1114 30.2751V30.2751Z" fill="#5E54AC"/>
<path d="M43.4483 20.316C42.2558 21.9255 40.0834 25.5189 40.1404 30.2751H38.6416C38.6416 23.0586 41.5718 20.6753 42.0794 20.316H43.4483Z" fill="#5E54AC"/>
<path d="M52.0722 38.1163L51.8349 38.5895L48.0722 38.1163C48.0722 38.1163 49.0754 33.4667 47.0874 31.478C45.0995 33.4667 46.1027 38.1163 46.1027 38.1163L43.953 38.4692L42.1019 38.1163C40.822 34.8364 41.2222 30.2751 41.2222 30.2751C41.2222 29.8236 41.2647 29.3746 41.3273 28.9575H52.8477C52.9102 29.3746 52.9527 29.8236 52.9527 30.2751C52.9527 30.2751 53.352 34.8364 52.0722 38.1163V38.1163Z" fill="#665E66"/>
<path d="M43.2863 38.1163L42.2401 38.4156L42.1019 38.1163C40.822 34.8364 41.2222 30.2751 41.2222 30.2751C41.2222 29.8236 41.2647 29.3746 41.3273 28.9575H43.2254C42.8228 30.4635 42.3248 33.5903 43.2863 38.1163V38.1163Z" fill="#454045"/>
<path d="M49.1162 38.1163H48.0721C48.0721 38.1163 49.0753 33.4668 47.0873 31.478C49.1162 31.478 50.1595 34.9712 49.1162 38.1163V38.1163Z" fill="#454045"/>
<path d="M40.9027 40H46.1028V38.1166H42.7861C41.746 38.1166 40.9027 38.9599 40.9027 40Z" fill="#AA593D"/>
<path d="M43.987 38.1163C42.9469 38.1163 42.1032 38.9599 42.1032 40H40.9027C40.9027 38.9599 41.7456 38.1163 42.7856 38.1163H43.987Z" fill="#934D36"/>
<path d="M53.2729 40H48.0728V38.1166H51.3895C52.4297 38.1166 53.2729 38.9599 53.2729 40Z" fill="#AA593D"/>
<path d="M56.0128 14.212H56.0253C57.0986 14.212 57.9682 13.3416 57.9682 12.2691C57.9682 11.1958 57.0986 10.3254 56.0253 10.3254C56.0113 10.3254 55.9974 10.3254 55.9835 10.3261H38.1923C38.1783 10.3254 38.1643 10.3254 38.1504 10.3254C37.0771 10.3254 36.2075 11.1958 36.2075 12.2691C36.2075 13.3416 37.0771 14.212 38.1504 14.212H38.1629" fill="#F1B986"/>
<path d="M47.0876 0C51.6572 0 55.0548 2.13711 55.5513 5.2782C55.989 8.78609 56.1181 12.2946 55.938 15.8025C55.8072 18.3563 53.7633 20.3892 51.2094 20.5095C49.8353 20.5743 48.4611 20.607 47.0876 20.607C45.714 20.607 44.3398 20.5743 42.9657 20.5095C40.4119 20.3892 38.3679 18.3563 38.2371 15.8025C38.057 12.2946 38.1861 8.78609 38.6238 5.2782C39.1204 2.13711 42.5181 0 47.0876 0V0Z" fill="#F1D0A5"/>
<path d="M44.6469 20.5726C44.0867 20.5571 43.5259 20.5361 42.9658 20.5095C40.412 20.3893 38.368 18.3563 38.2372 15.8026C38.0571 12.2947 38.1862 8.78616 38.6239 5.27827C39.0844 2.36545 42.0393 0.315845 46.1107 0.0338135C43.9398 0.492017 42.3894 2.48342 42.1357 5.24553C41.8797 8.77616 41.8044 12.3073 41.9096 15.838C41.9856 18.3917 43.1663 20.4269 44.6469 20.5726V20.5726Z" fill="#F1B986"/>
<path d="M55.9379 15.8028C55.8068 18.3565 53.7633 20.3887 51.2096 20.5094C49.8349 20.5738 48.4611 20.6068 47.088 20.6068C46.2744 20.6068 45.4607 20.5956 44.647 20.5722H44.6397C44.082 20.5569 43.5235 20.5352 42.9657 20.5094C40.4119 20.3887 38.3685 18.3565 38.2373 15.8028C38.1762 14.6149 38.1512 13.4269 38.1608 12.2381L38.1617 12.2374C39.5436 12.2374 40.4136 14.0249 41.88 14.5553C42.1359 14.6478 42.4095 14.7025 42.7073 14.7025C44.7137 14.7025 44.853 13.0977 47.088 13.0977C49.323 13.0977 49.4622 14.7025 51.4679 14.7025C53.4735 14.7025 54.3902 12.2374 56.0143 12.2374C56.024 13.4261 55.9991 14.6149 55.9379 15.8028V15.8028Z" fill="#EADFDA"/>
<path d="M44.6445 20.5722H44.6397C44.082 20.5569 43.5234 20.5352 42.9656 20.5094C40.4119 20.3887 38.3684 18.3565 38.2373 15.8028C38.1761 14.6149 38.1512 13.4269 38.1608 12.2381L38.1616 12.2374C39.5435 12.2374 40.4135 14.0249 41.8799 14.5553C41.8872 14.9826 41.8968 15.4108 41.9097 15.8381C41.9854 18.3903 43.1645 20.4241 44.6445 20.5722Z" fill="#C6BEB9"/>
<path d="M40.1605 7.51394C39.6486 8.00652 39.0039 8.47574 38.208 8.88777C37.5617 7.59519 37.709 3.39402 39.9939 2.50949C40.6587 2.25191 41.202 2.47004 41.5151 2.97066C42.1042 3.91152 41.8868 5.84957 40.1605 7.51394V7.51394Z" fill="#C6BEB9"/>
<path d="M40.1605 7.51386C40.047 6.02894 40.3842 3.9855 41.515 2.97058C42.1042 3.91144 41.8868 5.84949 40.1605 7.51386Z" fill="#EADFDA"/>
<path d="M55.9676 8.88799C56.6135 7.59494 56.4661 3.39393 54.1813 2.50947C51.8966 1.6251 51.0593 6.34846 55.9676 8.88799Z" fill="#EADFDA"/>
<path d="M42.9508 10.381C42.5039 10.381 42.1404 10.9219 42.1404 11.5867C42.1404 12.2514 42.5039 12.7923 42.9508 12.7923C43.3976 12.7923 43.7612 12.2514 43.7612 11.5867C43.7612 10.9219 43.3977 10.381 42.9508 10.381Z" fill="#454045"/>
<path d="M51.2249 10.381C50.7781 10.381 50.4145 10.9219 50.4145 11.5867C50.4145 12.2514 50.7781 12.7923 51.2249 12.7923C51.6718 12.7923 52.0353 12.2514 52.0353 11.5867C52.0353 10.9219 51.6718 10.381 51.2249 10.381Z" fill="#454045"/>
<path d="M47.0877 17.374C46.0829 17.374 45.1553 16.7874 44.7244 15.8795C44.5814 15.5783 44.7097 15.2183 45.0109 15.0754C45.3119 14.9326 45.672 15.0607 45.815 15.3619C46.0471 15.8508 46.5466 16.1668 47.0877 16.1668C47.6288 16.1668 48.1282 15.8508 48.3603 15.3619C48.5033 15.0607 48.8632 14.9324 49.1645 15.0754C49.4656 15.2183 49.5939 15.5783 49.451 15.8795C49.02 16.7874 48.0924 17.374 47.0877 17.374Z" fill="#C6BEB9"/>
<path d="M24.2966 32.6801C24.2966 32.6801 22.4007 33.2451 21.7502 32.5946C21.0997 31.9442 21.7502 30.2756 21.7502 30.2756L24.9711 28.9575L24.2966 32.6801Z" fill="#F1B986"/>
<path d="M38.6421 30.2755C38.6421 30.2755 39.2926 31.9442 38.6421 32.5945C37.9916 33.245 36.0957 32.68 36.0957 32.68L35.2646 29.2078L38.6421 30.2755Z" fill="#F1D0A5"/>
<path d="M37.3728 32.9022C36.7185 32.866 36.0956 32.6801 36.0956 32.6801L35.3133 29.4092L37.2199 30.2753C37.2199 31.0326 36.7627 32.2036 37.3728 32.9022V32.9022Z" fill="#F1B986"/>
<path d="M36.0609 30.2753C36.0609 30.2753 36.4609 34.8362 35.1812 38.1159L34.4441 39.4873L25.6851 39.3103L25.5941 39.3086L25.211 38.1159C24.0118 35.0446 24.2871 30.8507 24.3265 30.3292C24.3273 30.3203 24.3281 30.3131 24.3289 30.3067C24.3305 30.2857 24.3313 30.2753 24.3313 30.2753H21.7495C21.7495 23.0584 24.6798 20.6753 25.1877 20.3163H35.2045C35.7116 20.6753 38.642 23.0583 38.642 30.2753H36.0609Z" fill="#8BC852"/>
<path d="M30.1958 39.1599C29.8625 39.1599 29.5923 38.8746 29.5923 38.5226V23.1739C29.5923 22.822 29.8625 22.5366 30.1958 22.5366C30.5292 22.5366 30.7994 22.8219 30.7994 23.1739V38.5226C30.7995 38.8745 30.5292 39.1599 30.1958 39.1599V39.1599Z" fill="#6EA533"/>
<path d="M26.8786 38.1159L25.685 39.3102L25.5941 39.3086L25.2109 38.1159C24.0117 35.0446 24.287 30.8507 24.3264 30.3291C24.3272 30.3211 24.328 30.313 24.3288 30.3066C24.3305 30.2857 24.3312 30.2752 24.3312 30.2752H24.3305C24.3305 28.5143 24.9711 26.808 24.9711 26.808C24.9711 26.808 25.2666 36.9923 26.8786 38.1159Z" fill="#6EA533"/>
<path d="M37.2198 30.2751H36.0609C36.0609 28.5149 35.421 26.8076 35.421 26.8076C35.421 26.8076 37.0257 27.373 37.2198 30.2751Z" fill="#6EA533"/>
<path d="M26.5566 20.316C25.3641 21.9254 23.1917 25.5189 23.2487 30.275H21.7498C21.7498 23.0586 24.6801 20.6753 25.1877 20.316H26.5566Z" fill="#6EA533"/>
<path d="M24.996 40H30.1961V38.1166H26.8794C25.8392 38.1166 24.996 38.9599 24.996 40Z" fill="#665E66"/>
<path d="M28.0801 38.1163C27.0401 38.1163 26.1964 38.9599 26.1964 40H24.996C24.996 38.9599 25.8388 38.1163 26.8789 38.1163H28.0801Z" fill="#454045"/>
<path d="M35.3962 40H30.1961V38.1166H33.5128C34.553 38.1166 35.3962 38.9599 35.3962 40Z" fill="#665E66"/>
<path d="M30.2154 5.56828C31.7531 5.56828 32.9996 4.32178 32.9996 2.78414C32.9996 1.2465 31.7531 0 30.2154 0C28.6778 0 27.4313 1.2465 27.4313 2.78414C27.4313 4.32178 28.6778 5.56828 30.2154 5.56828Z" fill="#EADFDA"/>
<path d="M31.0038 5.45516C30.7535 5.52922 30.4887 5.56867 30.2151 5.56867C28.677 5.56867 27.4312 4.32203 27.4312 2.78398C27.4312 1.24664 28.6771 0 30.2151 0C30.4888 0 30.7536 0.0394531 31.0039 0.113516C29.8505 0.453125 29.0079 1.52031 29.0079 2.78391C29.0079 4.04828 29.8505 5.11547 31.0038 5.45516Z" fill="#C6BEB9"/>
<path d="M38.5456 11.0028L30.1963 16.4877L23.9508 12.3662L21.8857 11.0028C21.8857 11.0028 19.6153 2.11584 30.1964 2.11584H30.235C40.8152 2.11584 38.5456 11.0028 38.5456 11.0028Z" fill="#EADFDA"/>
<path d="M26.3307 10.3444L23.9508 12.3662L21.8857 11.0028C21.8857 11.0028 19.6153 2.11584 30.1964 2.11584C24.4104 3.53803 26.3307 10.3444 26.3307 10.3444Z" fill="#C6BEB9"/>
<path d="M21.8861 11.0028H28.8511V14.6334H21.8467C20.8446 14.6334 20.0317 13.8197 20.0317 12.8177C20.0317 11.8157 20.8446 11.002 21.8467 11.002C21.8604 11.002 21.8732 11.002 21.8861 11.0028Z" fill="#F1B986"/>
<path d="M40.3601 12.8177C40.3601 13.8197 39.548 14.6334 38.5452 14.6334H30.7682V11.0028H38.5058C38.5195 11.002 38.5324 11.002 38.5453 11.002C39.548 11.002 40.3601 11.8157 40.3601 12.8177Z" fill="#F1D0A5"/>
<path d="M30.1959 23.58C32.4573 23.58 34.2905 22.2488 34.2905 20.6067C34.2905 18.9646 32.4573 17.6334 30.1959 17.6334C27.9345 17.6334 26.1013 18.9646 26.1013 20.6067C26.1013 22.2488 27.9345 23.58 30.1959 23.58Z" fill="#6EA533"/>
<path d="M30.1959 22.3727C31.7905 22.3727 33.0833 21.582 33.0833 20.6067C33.0833 19.6314 31.7905 18.8407 30.1959 18.8407C28.6012 18.8407 27.3084 19.6314 27.3084 20.6067C27.3084 21.582 28.6012 22.3727 30.1959 22.3727Z" fill="#F1B986"/>
<path d="M38.4776 16.1111C38.356 18.5006 36.4437 20.4033 34.0527 20.5159C32.1718 20.6044 30.2909 20.6286 28.4092 20.5876C28.4068 20.5876 28.4036 20.5876 28.4012 20.5868C27.7138 20.5723 27.0265 20.5482 26.3392 20.5159C23.9489 20.4033 22.0366 18.5006 21.9143 16.1111C21.8266 14.408 21.8177 12.7058 21.8853 11.0028H21.8861C21.8861 11.0028 23.8507 10.903 26.3312 10.3444C28.5356 9.84865 31.1473 8.9899 33.1489 7.51709C33.1489 7.51709 35.2366 11.0028 38.5066 11.0028C38.575 12.7058 38.5653 14.408 38.4776 16.1111V16.1111Z" fill="#F1D0A5"/>
<path d="M28.4011 20.5868C27.7138 20.5723 27.0264 20.5482 26.3392 20.5159C23.9488 20.4033 22.0365 18.5006 21.9142 16.1111C21.8265 14.408 21.8177 12.7058 21.8853 11.0028H21.886C21.886 11.0028 23.8506 10.903 26.3311 10.3444V10.3452C25.7774 15.0938 26.3376 20.5015 28.4011 20.5868V20.5868Z" fill="#F1B986"/>
<path d="M30.1961 17.0912C29.2423 17.0912 28.3616 16.5343 27.9525 15.6724C27.8095 15.3712 27.9378 15.0112 28.239 14.8683C28.5402 14.7254 28.9002 14.8537 29.0431 15.1548C29.2534 15.5977 29.7059 15.884 30.1961 15.884C30.6862 15.884 31.1387 15.5977 31.349 15.1548C31.4919 14.8536 31.852 14.7252 32.1531 14.8682C32.4543 15.0111 32.5826 15.3712 32.4397 15.6723C32.0306 16.5343 31.15 17.0912 30.1961 17.0912V17.0912Z" fill="#EAAC9D"/>
<path d="M26.3315 11.4553C25.9133 11.4553 25.573 11.9611 25.573 12.5828C25.573 13.2046 25.9133 13.7104 26.3315 13.7104C26.7497 13.7104 27.0899 13.2046 27.0899 12.5828C27.0898 11.9611 26.7497 11.4553 26.3315 11.4553Z" fill="#454045"/>
<path d="M34.0609 11.4553C33.6427 11.4553 33.3024 11.9611 33.3024 12.5828C33.3024 13.2046 33.6427 13.7104 34.0609 13.7104C34.4791 13.7104 34.8193 13.2046 34.8193 12.5828C34.8192 11.9611 34.4791 11.4553 34.0609 11.4553Z" fill="#454045"/>
<path d="M35.3615 15.6798C36.0414 15.6798 36.5927 15.3323 36.5927 14.9036C36.5927 14.4749 36.0414 14.1274 35.3615 14.1274C34.6815 14.1274 34.1303 14.4749 34.1303 14.9036C34.1303 15.3323 34.6815 15.6798 35.3615 15.6798Z" fill="#EAAC9D"/>
<path d="M25.0306 15.6798C25.7106 15.6798 26.2618 15.3323 26.2618 14.9036C26.2618 14.4749 25.7106 14.1274 25.0306 14.1274C24.3507 14.1274 23.7995 14.4749 23.7995 14.9036C23.7995 15.3323 24.3507 15.6798 25.0306 15.6798Z" fill="#EAAC9D"/>
<path d="M34.7448 32.6146H32.7385C32.4052 32.6146 32.1349 32.3444 32.1349 32.011C32.1349 31.6776 32.4052 31.4074 32.7385 31.4074H34.7448C35.0782 31.4074 35.3484 31.6776 35.3484 32.011C35.3484 32.3443 35.0782 32.6146 34.7448 32.6146Z" fill="#6EA533"/>
<path d="M27.6533 32.6146H25.647C25.3137 32.6146 25.0434 32.3444 25.0434 32.011C25.0434 31.6776 25.3137 31.4074 25.647 31.4074H27.6533C27.9867 31.4074 28.2569 31.6776 28.2569 32.011C28.2569 32.3443 27.9867 32.6146 27.6533 32.6146Z" fill="#6EA533"/>
</g>
<defs>
<clipPath id="clip0">
<rect x="19" width="40" height="40" fill="white"/>
</clipPath>
</defs>
</svg>
