<svg width="174" height="113" viewBox="0 0 174 113" fill="none" xmlns="http://www.w3.org/2000/svg">
<g filter="url(#filter0_d)">
<path d="M90.5 99C92 73.5 83.2083 78.9572 63.5 106C59.5 76.5 53.5 81.5 19.5 104C50.5 71 43.5 62.5 19.5 65.5C40.397 52.6775 32 47.5 -5.1558e-06 30.5C42.5 39.5 55 42.5 44.5 9.5C68.5 46 76 36.3467 76 16C82 40 92.5 33 99 0.499999C106.5 34.5 115.5 37 121.5 20.5C123.554 42.8949 125 38.5 150 16C134.5 53 126.5 51 169.5 46C133.5 65.5 125.5 56 146.5 79.5C111.5 73.5 127 67 125.5 110C113 73.5 99 73 90.5 99Z" fill="#FFCD1C"/>
</g>
<g filter="url(#filter1_d)">
<path d="M31.2361 30.0664L31.2068 30.3789C30.6762 32.7943 30.3344 35.6051 30.1814 38.8115C31.2459 38.6585 32.9939 38.5055 35.4256 38.3525C36.7146 38.4307 37.3592 38.5072 37.3592 38.582C37.3592 39.9915 37.4731 41.9284 37.701 44.3926H37.5887C36.8823 44.2266 36.0083 44.1517 34.9666 44.168C32.2159 44.168 28.9493 44.8516 25.1668 46.2188H25.0545C24.9015 44.793 24.7827 43.6813 24.698 42.8838C24.6167 42.0895 24.6167 40.7354 24.698 38.8213C24.7827 36.9072 25.2807 34.3584 26.1922 31.1748C28.0867 30.4912 29.768 30.1217 31.2361 30.0664ZM48.7939 30.2617C50.6885 30.3398 51.7513 30.4928 51.9824 30.7207C52.0605 32.1237 52.0996 33.1491 52.0996 33.7969V35.8477C50.5924 35.6947 48.7695 35.5807 46.6309 35.5059L45.2978 35.4619L45.376 36.4189C47.3519 36.4743 48.3398 36.5882 48.3398 36.7607C48.3398 37.5062 48.2259 38.7594 47.998 40.5205H45.4102L45.376 41.2334C45.7731 41.2139 46.001 41.2041 46.0596 41.2041C49.8584 41.3538 51.7578 41.5817 51.7578 41.8877C51.5039 44.1012 51.237 45.4684 50.957 45.9893L44.8047 45.5352L40.0195 45.9893C40.6445 41.0251 40.9147 37.3906 40.8301 35.0859C40.7454 32.7812 40.6266 31.6289 40.4736 31.6289C43.3643 30.7174 46.1377 30.2617 48.7939 30.2617ZM66.5861 30.1494C67.2697 32.6787 68.562 36.8942 70.4631 42.7959L70.6926 43.709C70.5005 43.709 68.7525 44.3926 65.4484 45.7598H65.2189C65.0692 45.2161 64.8804 44.1143 64.6525 42.4541H61.1174C60.9937 42.4541 60.538 43.6699 59.7502 46.1016L54.052 43.9385C53.9771 43.7497 55.0025 41.6989 57.1281 37.7861L59.7893 32.083C60.0236 32.0081 62.2893 31.3636 66.5861 30.1494ZM63.6271 34.1387L62.1428 38.8115H62.26C62.8361 38.6585 63.5116 38.5918 64.2863 38.6113V38.499L63.6271 34.1387ZM80.4281 28.8945H81.3363C85.1352 29.6074 87.0346 30.8623 87.0346 32.6592V33.5674C87.0346 34.6156 86.1605 35.68 84.4125 36.7607C83.4001 37.2913 82.8305 37.5566 82.7035 37.5566C87.0004 40.4831 89.4695 42.1156 90.1107 42.4541C89.2058 43.665 88.029 45.1478 86.5805 46.9023C85.6951 46.3685 84.5232 45.488 83.0648 44.2607C81.6098 43.0368 80.5779 42.1693 79.9691 41.6582L80.6527 44.168V44.2803C80.6527 44.4463 79.8357 44.6969 78.2016 45.0322C76.5707 45.3675 75.1465 45.6491 73.9291 45.877H73.7045C73.0958 42.5632 72.7914 39.9801 72.7914 38.1279C72.9672 32.4281 73.4994 29.5781 74.3881 29.5781C76.5691 29.1224 78.5824 28.8945 80.4281 28.8945ZM78.2797 32.5322L78.5727 35.5352C81.5479 35.1283 82.9981 34.4137 82.9232 33.3916C82.9395 32.6266 82.3324 32.2393 81.102 32.2295C79.8747 32.2165 78.934 32.3174 78.2797 32.5322ZM97.8736 29.4658C98.9967 32.3857 100.25 35.0452 101.633 37.4443H101.751C102.076 33.0856 102.341 30.654 102.546 30.1494L102.776 30.0371C105.881 30.4147 107.742 30.68 108.357 30.833C107.673 34.6644 107.332 38.0449 107.332 40.9746C107.407 43.0417 107.444 44.2949 107.444 44.7344L101.633 45.9893C99.6607 43.3851 98.3326 41.3848 97.649 39.9883C97.5449 40.1901 97.3919 42.1139 97.19 45.7598V46.1016C94.7682 45.5775 93.1731 45.0469 92.4049 44.5098C92.7857 37.2246 93.2952 32.5127 93.9332 30.374L94.9098 30.0371C95.9612 29.6562 96.9491 29.4658 97.8736 29.4658ZM116.598 32.0879C117.158 36.3783 117.196 40.8607 116.711 45.5352C116.219 45.5352 114.092 45.3822 110.329 45.0762C110.723 41.1927 110.837 36.9382 110.671 32.3125C111.494 32.1628 113.47 32.0879 116.598 32.0879ZM124.952 29.4658C126.075 32.3857 127.328 35.0452 128.712 37.4443H128.829C129.155 33.0856 129.42 30.654 129.625 30.1494L129.854 30.0371C132.96 30.4147 134.82 30.68 135.436 30.833C134.752 34.6644 134.41 38.0449 134.41 40.9746C134.485 43.0417 134.522 44.2949 134.522 44.7344L128.712 45.9893C126.739 43.3851 125.411 41.3848 124.728 39.9883C124.623 40.1901 124.47 42.1139 124.269 45.7598V46.1016C121.847 45.5775 120.252 45.0469 119.483 44.5098C119.864 37.2246 120.374 32.5127 121.012 30.374L121.988 30.0371C123.04 29.6562 124.028 29.4658 124.952 29.4658ZM150.274 31.5752C150.098 34.1598 149.909 35.4521 149.707 35.4521C148.477 35.4521 147.071 35.9079 145.488 36.8193C144.655 37.6396 144.238 38.3607 144.238 38.9824C144.333 40.7305 145.168 41.6045 146.743 41.6045H149.248V41.0332H149.136C149.019 41.0332 148.412 40.9958 147.315 40.9209V40.125C147.315 39.2559 147.466 38.2679 147.769 37.1611L149.136 37.0488C151.356 37.0488 153.141 37.2376 154.492 37.6152L153.809 45.1396C151.52 45.8232 149.014 46.165 146.289 46.165H145.606C142.272 46.165 139.727 45.2536 137.969 43.4307C137.337 42.6462 136.996 41.7721 136.944 40.8086C136.944 39.0573 138.501 36.8535 141.616 34.1973C144.673 32.4492 147.559 31.5752 150.274 31.5752ZM76.8494 53.1494C77.533 55.6787 78.8253 59.8942 80.7264 65.7959L80.9559 66.709C80.7638 66.709 79.0158 67.3926 75.7117 68.7598H75.4822C75.3325 68.2161 75.1437 67.1143 74.9158 65.4541H71.3807C71.257 65.4541 70.8012 66.6699 70.0135 69.1016L64.3152 66.9385C64.2404 66.7497 65.2658 64.6989 67.3914 60.7861L70.0525 55.083C70.2869 55.0081 72.5525 54.3636 76.8494 53.1494ZM73.8904 57.1387L72.4061 61.8115H72.5232C73.0994 61.6585 73.7749 61.5918 74.5496 61.6113V61.499L73.8904 57.1387ZM88.8311 52.4658C89.9541 55.3857 91.2074 58.0452 92.5908 60.4443H92.708C93.0335 56.0856 93.2988 53.654 93.5039 53.1494L93.7334 53.0371C96.8389 53.4147 98.6992 53.68 99.3145 53.833C98.6309 57.6644 98.2891 61.0449 98.2891 63.9746C98.3639 66.0417 98.4014 67.2949 98.4014 67.7344L92.5908 68.9893C90.6182 66.3851 89.29 64.3848 88.6064 62.9883C88.5023 63.1901 88.3493 65.1139 88.1475 68.7598V69.1016C85.7256 68.5775 84.1305 68.0469 83.3623 67.5098C83.7432 60.2246 84.2526 55.5127 84.8906 53.374L85.8672 53.0371C86.9186 52.6562 87.9066 52.4658 88.8311 52.4658ZM102.199 53.7207H102.771C108.682 53.7207 112.398 55.1953 113.918 58.1445C114.234 59.069 114.392 59.8356 114.392 60.4443V60.6689C114.392 62.7881 113.025 64.8779 110.29 66.9385C108.152 68.2308 105.682 68.877 102.883 68.877H101.745V68.418C101.745 67.5879 101.822 63.5238 101.975 56.2256V53.9453C101.998 53.7956 102.072 53.7207 102.199 53.7207ZM106.989 58.2764L106.76 63.291H106.989C108.887 62.6693 109.836 61.7204 109.836 60.4443V60.3271C109.836 59.2464 109.076 58.5628 107.556 58.2764H106.989ZM41.4945 75.124H42.4027C46.2016 75.8337 48.101 77.0869 48.101 78.8838V79.7969C47.9284 80.8125 47.3588 81.6865 46.392 82.4189C43.9311 83.8903 41.9177 84.6878 40.352 84.8115C40.2771 85.1729 40.7328 87.0332 41.7191 90.3926V90.5098C41.7191 90.6758 40.0867 91.055 36.8217 91.6475C36.8217 91.7223 36.213 91.8737 34.9955 92.1016H34.7709C34.1622 88.791 33.8578 86.208 33.8578 84.3525C34.0336 78.6559 34.5658 75.8076 35.4545 75.8076C37.6355 75.3519 39.6488 75.124 41.4945 75.124ZM39.3559 78.5322L39.6488 81.5352C42.6241 81.1283 44.0743 80.4137 43.9994 79.3916C44.0157 78.6266 43.4086 78.2393 42.1781 78.2295C40.9509 78.2165 40.0102 78.3174 39.3559 78.5322ZM56.4596 76.0664L56.4303 76.3789C55.8997 78.7943 55.5579 81.6051 55.4049 84.8115C56.4693 84.6585 58.2174 84.5055 60.649 84.3525C61.9381 84.4307 62.5826 84.5072 62.5826 84.582C62.5826 85.9915 62.6965 87.9284 62.9244 90.3926H62.8121C62.1057 90.2266 61.2317 90.1517 60.19 90.168C57.4394 90.168 54.1728 90.8516 50.3902 92.2188H50.2779C50.1249 90.793 50.0061 89.6813 49.9215 88.8838C49.8401 88.0895 49.8401 86.7354 49.9215 84.8213C50.0061 82.9072 50.5042 80.3584 51.4156 77.1748C53.3102 76.4912 54.9915 76.1217 56.4596 76.0664ZM78.1092 76.1494C78.7928 78.6787 80.0851 82.8942 81.9861 88.7959L82.2156 89.709C82.0236 89.709 80.2755 90.3926 76.9715 91.7598H76.742C76.5922 91.2161 76.4034 90.1143 76.1756 88.4541H72.6404C72.5167 88.4541 72.061 89.6699 71.2732 92.1016L65.575 89.9385C65.5001 89.7497 66.5255 87.6989 68.6512 83.7861L71.3123 78.083C71.5467 78.0081 73.8123 77.3636 78.1092 76.1494ZM75.1502 80.1387L73.6658 84.8115H73.783C74.3592 84.6585 75.0346 84.5918 75.8094 84.6113V84.499L75.1502 80.1387ZM87.166 75.2363C88.2272 78.6966 89.1387 80.9004 89.9004 81.8477C91.6712 77.8177 92.7715 75.6904 93.2012 75.4658C94.0671 75.876 95.8151 77.2057 98.4453 79.4551L92.9766 86.0615C93.3542 89.3167 93.5055 91.1413 93.4307 91.5352C91.0674 91.61 88.7122 91.8753 86.3652 92.3311V92.1016C86.3652 90.194 86.5182 88.5615 86.8242 87.2041C85.2194 85.1989 83.3574 82.1211 81.2383 77.9707C84.347 76.1478 86.3229 75.2363 87.166 75.2363ZM106.97 78.0879C107.53 82.3783 107.567 86.8607 107.082 91.5352C106.591 91.5352 104.463 91.3822 100.7 91.0762C101.094 87.1927 101.208 82.9382 101.042 78.3125C101.866 78.1628 103.842 78.0879 106.97 78.0879ZM115.324 75.4658C116.447 78.3857 117.7 81.0452 119.083 83.4443H119.201C119.526 79.0856 119.791 76.654 119.996 76.1494L120.226 76.0371C123.331 76.4147 125.192 76.68 125.807 76.833C125.123 80.6644 124.782 84.0449 124.782 86.9746C124.857 89.0417 124.894 90.2949 124.894 90.7344L119.083 91.9893C117.111 89.3851 115.783 87.3848 115.099 85.9883C114.995 86.1901 114.842 88.1139 114.64 91.7598V92.1016C112.218 91.5775 110.623 91.0469 109.855 90.5098C110.236 83.2246 110.745 78.5127 111.383 76.374L112.36 76.0371C113.411 75.6562 114.399 75.4658 115.324 75.4658ZM140.645 77.5752C140.469 80.1598 140.281 81.4521 140.079 81.4521C138.848 81.4521 137.442 81.9079 135.86 82.8193C135.027 83.6396 134.61 84.3607 134.61 84.9824C134.704 86.7305 135.539 87.6045 137.115 87.6045H139.62V87.0332H139.507C139.39 87.0332 138.783 86.9958 137.686 86.9209V86.125C137.686 85.2559 137.838 84.2679 138.14 83.1611L139.507 83.0488C141.727 83.0488 143.513 83.2376 144.864 83.6152L144.18 91.1396C141.892 91.8232 139.385 92.165 136.661 92.165H135.977C132.644 92.165 130.098 91.2536 128.34 89.4307C127.709 88.6462 127.367 87.7721 127.315 86.8086C127.315 85.0573 128.873 82.8535 131.988 80.1973C135.045 78.4492 137.93 77.5752 140.645 77.5752Z" fill="#FF0000"/>
</g>
<defs>
<filter id="filter0_d" x="0" y="0.5" width="173.5" height="112.5" filterUnits="userSpaceOnUse" color-interpolation-filters="sRGB">
<feFlood flood-opacity="0" result="BackgroundImageFix"/>
<feColorMatrix in="SourceAlpha" type="matrix" values="0 0 0 0 0 0 0 0 0 0 0 0 0 0 0 0 0 0 127 0"/>
<feOffset dx="3" dy="2"/>
<feGaussianBlur stdDeviation="0.5"/>
<feColorMatrix type="matrix" values="0 0 0 0 0.0791667 0 0 0 0 0.0791667 0 0 0 0 0.0791667 0 0 0 1 0"/>
<feBlend mode="normal" in2="BackgroundImageFix" result="effect1_dropShadow"/>
<feBlend mode="normal" in="SourceGraphic" in2="effect1_dropShadow" result="shape"/>
</filter>
<filter id="filter1_d" x="24.637" y="28.8945" width="133.855" height="66.4365" filterUnits="userSpaceOnUse" color-interpolation-filters="sRGB">
<feFlood flood-opacity="0" result="BackgroundImageFix"/>
<feColorMatrix in="SourceAlpha" type="matrix" values="0 0 0 0 0 0 0 0 0 0 0 0 0 0 0 0 0 0 127 0"/>
<feOffset dx="3" dy="2"/>
<feGaussianBlur stdDeviation="0.5"/>
<feColorMatrix type="matrix" values="0 0 0 0 0.0458333 0 0 0 0 0.0458333 0 0 0 0 0.0458333 0 0 0 1 0"/>
<feBlend mode="normal" in2="BackgroundImageFix" result="effect1_dropShadow"/>
<feBlend mode="normal" in="SourceGraphic" in2="effect1_dropShadow" result="shape"/>
</filter>
</defs>
</svg>
