<svg width="40" height="54" viewBox="0 0 40 54" fill="none" xmlns="http://www.w3.org/2000/svg">
<path d="M2.90215 44.0991H4.37383L6.2 49.6099L8.05303 44.0991H9.50322L10.8353 52H9.38506L8.53643 47.0103L6.85527 52H5.52861L3.86895 47.0103L3.0042 52H1.53789L2.90215 44.0991ZM14.8472 46.0059C15.3987 46.0059 15.9161 46.1437 16.3995 46.4194C16.8865 46.6951 17.266 47.0693 17.5382 47.542C17.8103 48.0146 17.9464 48.5249 17.9464 49.0728C17.9464 49.6242 17.8085 50.1398 17.5328 50.6196C17.2607 51.0994 16.8883 51.4754 16.4156 51.7476C15.943 52.0161 15.422 52.1504 14.8526 52.1504C14.0147 52.1504 13.2986 51.8532 12.7042 51.2588C12.1134 50.6608 11.818 49.9357 11.818 49.0835C11.818 48.1704 12.1527 47.4095 12.8223 46.8008C13.4096 46.2708 14.0846 46.0059 14.8472 46.0059ZM14.8687 47.3862C14.414 47.3862 14.0344 47.5456 13.7301 47.8643C13.4293 48.1794 13.2789 48.584 13.2789 49.0781C13.2789 49.5866 13.4275 49.9984 13.7247 50.3135C14.0255 50.6286 14.405 50.7861 14.8634 50.7861C15.3217 50.7861 15.703 50.6268 16.0074 50.3081C16.3118 49.9894 16.4639 49.5794 16.4639 49.0781C16.4639 48.5768 16.3136 48.1704 16.0128 47.8589C15.7156 47.5438 15.3342 47.3862 14.8687 47.3862ZM19.5467 44.0024H21.0077V46.1562H21.8778V47.4185H21.0077V52H19.5467V47.4185H18.7948V46.1562H19.5467V44.0024ZM22.8927 43.9004H24.3483V46.7471C24.6347 46.5 24.923 46.3156 25.213 46.1938C25.5031 46.0685 25.7967 46.0059 26.0939 46.0059C26.674 46.0059 27.1627 46.2064 27.5602 46.6074C27.9004 46.9548 28.0704 47.465 28.0704 48.1382V52H26.6256V49.438C26.6256 48.7612 26.5934 48.3029 26.5289 48.063C26.4645 47.8231 26.3535 47.644 26.1959 47.5259C26.042 47.4077 25.8504 47.3486 25.6212 47.3486C25.324 47.3486 25.068 47.4471 24.8532 47.644C24.6419 47.841 24.4951 48.1095 24.4127 48.4497C24.3698 48.6252 24.3483 49.0262 24.3483 49.6528V52H22.8927V43.9004ZM35.5683 49.5024H30.8578C30.9259 49.9178 31.1067 50.249 31.4003 50.4961C31.6975 50.7396 32.0753 50.8613 32.5336 50.8613C33.0815 50.8613 33.5523 50.6698 33.9462 50.2866L35.1816 50.8667C34.8736 51.3035 34.5048 51.6276 34.0751 51.8389C33.6454 52.0465 33.1352 52.1504 32.5444 52.1504C31.6277 52.1504 30.8811 51.8621 30.3046 51.2856C29.7281 50.7056 29.4399 49.9805 29.4399 49.1104C29.4399 48.2188 29.7263 47.4793 30.2992 46.8921C30.8757 46.3013 31.5973 46.0059 32.4638 46.0059C33.384 46.0059 34.1324 46.3013 34.7089 46.8921C35.2854 47.4793 35.5737 48.2563 35.5737 49.2231L35.5683 49.5024ZM34.0966 48.3477C33.9999 48.0218 33.8084 47.7568 33.5219 47.5527C33.239 47.3486 32.9096 47.2466 32.5336 47.2466C32.1254 47.2466 31.7673 47.3612 31.4594 47.5903C31.266 47.7336 31.087 47.986 30.9223 48.3477H34.0966ZM36.6369 46.1562H37.8937V46.8921C38.0298 46.6021 38.2106 46.3818 38.4362 46.2314C38.6618 46.0811 38.9089 46.0059 39.1774 46.0059C39.3672 46.0059 39.5659 46.056 39.7736 46.1562L39.3171 47.4185C39.1452 47.3325 39.0038 47.2896 38.8928 47.2896C38.6672 47.2896 38.4756 47.4292 38.3181 47.7085C38.1641 47.9878 38.0871 48.5356 38.0871 49.3521L38.0925 49.6367V52H36.6369V46.1562Z" fill="black"/>
<g clip-path="url(#clip0)">
<path d="M27.931 33.7929V31.6233C27.931 30.8397 27.4882 30.1233 26.7873 29.7728L20.7989 26.7785C20.098 26.4281 19.6552 25.7117 19.6552 24.9281V22.7585H12.7587V24.9281C12.7587 25.7117 12.3159 26.4282 11.6149 26.7787L5.62653 29.7729C4.9256 30.1234 4.48279 30.8398 4.48279 31.6234V34.4827C4.48279 34.8636 4.79154 35.1724 5.17247 35.1724V39.3103C5.17247 39.6912 5.48122 40 5.86216 40H21.7241L27.931 33.7929Z" fill="#E6AF78"/>
<path d="M27.931 33.7929V31.6234C27.931 30.8397 27.4882 30.1233 26.7873 29.7728L20.7989 26.7785C20.1559 26.4571 19.7346 25.8267 19.6687 25.1199L17.3792 27.4094C15.3297 29.4589 14.2187 32.3175 14.5421 35.1979C14.8137 37.618 15.9726 39.0147 17.3709 39.9997H21.7242L27.931 33.7929Z" fill="#D29B6E"/>
<path d="M20.259 3.73404C20.3151 3.53037 20.3449 3.31959 20.3449 3.10342C20.3449 1.38945 18.4922 0 16.2069 0C13.9216 0 12.069 1.38945 12.069 3.10342C12.069 3.31951 12.0987 3.53037 12.1548 3.73404C9.24172 5.2145 7.24142 8.23245 7.24142 11.7241V12.4138C7.24142 15.8417 10.0203 18.6206 13.4483 18.6206H18.9655C22.3934 18.6206 25.1723 15.8417 25.1723 12.4138V11.7241C25.1724 8.23245 23.1721 5.2145 20.259 3.73404Z" fill="#785546"/>
<path d="M12.0691 13.1043V11.725C12.0691 7.61101 14.8434 4.15283 18.6207 3.09776C17.8518 2.883 17.0445 2.75956 16.2069 2.75956C15.7412 2.75956 15.2875 2.80596 14.8409 2.8744C14.8362 2.8705 14.8342 2.86878 14.8296 2.86487C14.7877 1.69808 15.4446 0.660274 16.4741 0.0111374C16.4732 0.00762184 16.474 0.0107468 16.4731 0.00723122C14.0673 -0.105659 12.0691 1.32433 12.0691 3.1044C12.0691 3.32002 12.1083 3.52752 12.1648 3.73026C9.24627 5.20892 7.24152 8.22953 7.24152 11.725V12.4147C7.24152 15.8426 10.0204 18.6215 13.4484 18.6215H17.5863C14.5392 18.6215 12.0691 16.1514 12.0691 13.1043Z" fill="#553732"/>
<path d="M5.17255 34.4825V36.5515H6.55184C6.93269 36.5515 7.24152 36.8603 7.24152 37.2412V39.9998H9.31049V34.4825H5.17255Z" fill="#D29B6E"/>
<path d="M21.7242 39.9998L27.931 33.793V31.6234C27.931 30.8397 27.4882 30.1233 26.7873 29.7728L22.0544 27.4064C19.3647 31.1431 16.2069 32.4137 16.2069 32.4137C16.2069 32.4137 13.0492 31.1432 10.3595 27.4064L5.62653 29.7728C4.9256 30.1233 4.48279 30.8397 4.48279 31.6234V34.4827C4.48279 34.8635 4.79154 35.1723 5.17247 35.1723H8.62073V39.9998H21.7242Z" fill="#00AAF0"/>
<path d="M12.7587 24.7958C13.7737 25.2361 14.8795 25.4943 16.0396 25.5154L16.2069 25.517C17.4285 25.517 18.5929 25.2697 19.6552 24.8254V22.7584H12.7587V24.7958Z" fill="#D29B6E"/>
<path d="M13.2997 10.6024C12.9928 10.4633 12.633 10.5519 12.4412 10.8289C11.7837 11.7783 10.2023 13.793 8.6208 13.793C7.85901 13.793 7.24152 14.4105 7.24152 15.1723C7.24152 15.9341 7.85909 16.5516 8.6208 16.5516C8.6208 21.263 12.9159 24.9714 17.8041 23.9747C21.2868 23.2645 23.8031 20.088 23.7931 16.5337C23.7799 11.8848 18.6239 13.0167 13.2997 10.6024Z" fill="#F0C087"/>
<path d="M19.6552 16.5516C19.274 16.5516 18.9655 16.2428 18.9655 15.8619V15.1722C18.9655 14.7914 19.2739 14.4825 19.6552 14.4825C20.0364 14.4825 20.3449 14.7914 20.3449 15.1722V15.8619C20.3449 16.2428 20.0364 16.5516 19.6552 16.5516Z" fill="#553732"/>
<path d="M4.48288 31.6234V34.4826C4.48288 34.8635 4.79163 35.1723 5.17256 35.1723H8.62083V34.3644C8.62083 33.9986 8.47552 33.6477 8.21684 33.3891L5.04288 30.2151C4.69132 30.5917 4.48288 31.0904 4.48288 31.6234Z" fill="#0096DC"/>
<path d="M12.7587 16.5516V10.5908C12.6352 10.6378 12.5217 10.7126 12.4411 10.8289C11.7836 11.7784 10.2022 13.7931 8.62071 13.7931C7.85892 13.7931 7.24142 14.4106 7.24142 15.1724C7.24142 15.9342 7.859 16.5516 8.62071 16.5516C8.62071 21.2631 12.9158 24.9714 17.804 23.9747C17.9715 23.9405 18.1347 23.8957 18.2976 23.8504C15.104 22.9561 12.7587 20.031 12.7587 16.5516Z" fill="#E6AF78"/>
<path d="M16.2069 20.6896C15.2546 20.6896 14.3643 20.3889 13.7002 19.843C13.4059 19.6012 13.3635 19.1666 13.6052 18.8722C13.8463 18.5792 14.2814 18.5351 14.5757 18.7776C15.4001 19.4545 17.0137 19.4545 17.8381 18.7776C18.1324 18.5352 18.5675 18.5792 18.8086 18.8722C19.0503 19.1665 19.0079 19.6012 18.7136 19.843C18.0496 20.3888 17.1593 20.6896 16.2069 20.6896Z" fill="#D29B6E"/>
<path d="M12.7587 16.5516C12.3775 16.5516 12.069 16.2428 12.069 15.8619V15.1722C12.069 14.7914 12.3774 14.4825 12.7587 14.4825C13.1398 14.4825 13.4483 14.7914 13.4483 15.1722V15.8619C13.4483 16.2428 13.1399 16.5516 12.7587 16.5516Z" fill="#553732"/>
<path d="M27.931 33.793V31.6234C27.931 30.8397 27.4882 30.1233 26.7873 29.7728L23.2918 28.025L22.0544 27.4064C19.3648 31.1432 16.207 32.4137 16.207 32.4137C16.207 32.4137 13.0492 31.1432 10.3595 27.4064L9.11996 28.0261L9.19387 28.1431L9.24035 28.2121C10.9885 30.6417 12.926 32.1118 14.2192 32.9108C13.9567 35.1366 14.6556 37.453 16.3599 39.1573C16.6742 39.4715 17.0148 39.749 17.3709 39.9999H21.7242L27.931 33.793Z" fill="#0096DC"/>
<path d="M17.3353 38.1818C14.9113 35.7578 14.9113 31.8279 17.3353 29.4039L24.9214 21.8178C27.3453 19.3939 31.2753 19.3939 33.6993 21.8178C36.1232 24.2417 36.1232 28.1717 33.6993 30.5956L26.1131 38.1818C23.6892 40.6057 19.7592 40.6057 17.3353 38.1818Z" fill="#B4F0FF"/>
<path d="M29.3101 29.6553C31.2147 29.6553 32.7586 28.1113 32.7586 26.2068C32.7586 24.3023 31.2147 22.7584 29.3101 22.7584C27.4056 22.7584 25.8617 24.3023 25.8617 26.2068C25.8617 28.1113 27.4056 29.6553 29.3101 29.6553Z" fill="#F0C087"/>
<path d="M29.9006 34.3943L31.1948 33.1001C27.1613 33.0783 23.367 30.2115 21.2436 28.2542L28.3696 21.1282C28.8212 20.6766 29.3254 20.3096 29.8622 20.0262C28.0951 19.8693 26.2738 20.4654 24.9214 21.8178L17.3353 29.404C14.9114 31.8279 14.9114 35.7578 17.3353 38.1818C19.3075 40.1541 22.2767 40.5211 24.6206 39.2838C23.2207 39.1595 21.8549 38.5636 20.7835 37.4921C18.5358 35.2444 18.3763 31.7036 20.2972 29.2676C22.3538 31.1717 25.9008 33.8763 29.9006 34.3943Z" fill="#91E1F5"/>
<path d="M27.9065 24.8029C29.0754 23.6341 30.873 23.4832 32.2083 24.3432C32.0775 24.1401 31.9265 23.9463 31.7486 23.7684C30.402 22.4218 28.2187 22.4218 26.8721 23.7684C25.5255 25.115 25.5255 27.2983 26.8721 28.6449C27.0499 28.8227 27.2437 28.9737 27.4469 29.1046C26.5868 27.7693 26.7377 25.9717 27.9065 24.8029Z" fill="#E6AF78"/>
<path d="M28.3352 25.9207C28.7161 25.9207 29.0248 25.612 29.0248 25.2311C29.0248 24.8502 28.7161 24.5414 28.3352 24.5414C27.9543 24.5414 27.6455 24.8502 27.6455 25.2311C27.6455 25.612 27.9543 25.9207 28.3352 25.9207Z" fill="#64463C"/>
<path d="M30.2851 27.8716C30.666 27.8716 30.9748 27.5628 30.9748 27.1819C30.9748 26.801 30.666 26.4922 30.2851 26.4922C29.9042 26.4922 29.5955 26.801 29.5955 27.1819C29.5955 27.5628 29.9042 27.8716 30.2851 27.8716Z" fill="#64463C"/>
<path d="M28.9075 32.8477C28.3061 31.7309 27.14 31.0343 25.8715 31.0343H24.6015C23.1607 31.0343 21.8741 32.0876 21.7372 33.5218C21.5802 35.1671 22.8698 36.5515 24.4828 36.5515H25.4716C25.7139 36.5515 25.9384 36.6786 26.063 36.8863L27.5293 39.33C27.7786 39.7455 28.2276 39.9997 28.712 39.9997H31.9504C32.3157 39.9997 32.5486 39.6097 32.3754 39.2881L28.9075 32.8477Z" fill="#E6AF78"/>
<path d="M26.0407 35.1722H25.1724C24.0297 35.1722 23.1034 34.2459 23.1034 33.1032V31.4407C22.36 31.8749 21.8228 32.6233 21.7371 33.5218C21.58 35.1671 22.8697 36.5515 24.4827 36.5515H25.4716C25.7138 36.5515 25.9383 36.6786 26.0629 36.8863L27.5291 39.3302C27.7784 39.7456 28.2273 39.9998 28.7119 39.9998H30L27.8371 36.2148C27.4687 35.57 26.7832 35.1722 26.0407 35.1722Z" fill="#D29B6E"/>
</g>
<defs>
<clipPath id="clip0">
<rect width="40" height="40" fill="white"/>
</clipPath>
</defs>
</svg>
