<svg width="39" height="55" viewBox="0 0 39 55" fill="none" xmlns="http://www.w3.org/2000/svg">
<path d="M11.9216 45.0991H13.5168C14.3798 45.0991 15.001 45.1797 15.3806 45.3408C15.7637 45.4984 16.0645 45.7562 16.2829 46.1143C16.5049 46.4688 16.6159 46.8949 16.6159 47.3926C16.6159 47.944 16.4709 48.4023 16.1809 48.7676C15.8944 49.1328 15.5041 49.387 15.01 49.5303C14.7199 49.6126 14.1918 49.6538 13.4255 49.6538V53H11.9216V45.0991ZM13.4255 48.1875H13.9035C14.2795 48.1875 14.5409 48.1606 14.6877 48.1069C14.8345 48.0532 14.9491 47.9655 15.0315 47.8438C15.1174 47.7184 15.1604 47.568 15.1604 47.3926C15.1604 47.0882 15.0422 46.8662 14.8059 46.7266C14.634 46.6227 14.3153 46.5708 13.8498 46.5708H13.4255V48.1875ZM24.0063 50.5024H19.2959C19.3639 50.9178 19.5448 51.249 19.8384 51.4961C20.1356 51.7396 20.5133 51.8613 20.9717 51.8613C21.5195 51.8613 21.9904 51.6698 22.3843 51.2866L23.6196 51.8667C23.3117 52.3035 22.9429 52.6276 22.5132 52.8389C22.0835 53.0465 21.5732 53.1504 20.9824 53.1504C20.0658 53.1504 19.3192 52.8621 18.7427 52.2856C18.1662 51.7056 17.8779 50.9805 17.8779 50.1104C17.8779 49.2188 18.1644 48.4793 18.7373 47.8921C19.3138 47.3013 20.0353 47.0059 20.9019 47.0059C21.8221 47.0059 22.5705 47.3013 23.147 47.8921C23.7235 48.4793 24.0117 49.2563 24.0117 50.2231L24.0063 50.5024ZM22.5347 49.3477C22.438 49.0218 22.2464 48.7568 21.96 48.5527C21.6771 48.3486 21.3477 48.2466 20.9717 48.2466C20.5635 48.2466 20.2054 48.3612 19.8975 48.5903C19.7041 48.7336 19.5251 48.986 19.3604 49.3477H22.5347ZM25.596 45.0024H27.0569V47.1562H27.927V48.4185H27.0569V53H25.596V48.4185H24.844V47.1562H25.596V45.0024Z" fill="black"/>
<path d="M26.6154 22.3152H12.3846L9.7705 38.558C9.64798 39.319 10.3133 39.9998 11.1793 39.9998H27.8208C28.6868 39.9998 29.3521 39.319 29.2296 38.558L26.6154 22.3152Z" fill="#D7B48D"/>
<path d="M26.6154 22.3152H12.3846L11.847 25.6553C13.2413 28.1619 16.1434 29.8943 19.5 29.8943C22.8567 29.8943 25.7586 28.1618 27.153 25.6553L26.6154 22.3152Z" fill="#C09B78"/>
<path d="M13.8078 3.36748L10.4324 0.371343C9.91607 -0.0869923 9.09827 -0.126056 8.53114 0.282052C6.76672 1.55174 3.10505 4.35441 1 7.15708C1 7.15708 3.84612 13.473 9.53852 14.7363L13.8078 3.36748Z" fill="#553732"/>
<path d="M10.4322 0.371428C10.109 0.084521 9.66954 -0.0176478 9.2454 0.0308616C8.08825 1.91057 4.15123 9.26124 9.49141 14.7229C9.50753 14.7265 9.52219 14.7326 9.53815 14.7362L13.8078 3.36756L10.4322 0.371428Z" fill="#64463C"/>
<path d="M25.1922 3.36748L28.5676 0.371343C29.0839 -0.0869923 29.9018 -0.126056 30.4689 0.282052C32.2333 1.55174 35.895 4.35441 38 7.15708C38 7.15708 35.1539 13.473 29.4615 14.7363L25.1922 3.36748Z" fill="#553732"/>
<path d="M28.5676 0.371428C28.8908 0.084521 29.3303 -0.0176478 29.7544 0.0308616C30.9116 1.91057 34.8486 9.26124 29.5084 14.7229C29.4923 14.7265 29.4776 14.7326 29.4617 14.7362L25.1922 3.36756L28.5676 0.371428Z" fill="#64463C"/>
<path d="M19.5 24.8417C13.2124 24.8417 8.11533 20.3173 8.11533 14.7361V10.9465C8.11533 5.36535 13.2124 0.840942 19.5 0.840942C25.7875 0.840942 30.8846 5.36535 30.8846 10.9465V14.7361C30.8846 20.3173 25.7875 24.8417 19.5 24.8417Z" fill="#EBC9A0"/>
<path d="M13.8077 14.7361V10.9465C13.8077 6.23952 17.4386 2.29566 22.3463 1.17221C21.4351 0.963576 20.4848 0.840942 19.5002 0.840942C13.2126 0.840942 8.11551 5.36535 8.11551 10.9465V14.7361C8.11551 20.3173 13.2126 24.8417 19.5002 24.8417C20.4848 24.8417 21.4351 24.7191 22.3463 24.5104C17.4385 23.3871 13.8077 19.4433 13.8077 14.7361Z" fill="#D7B48D"/>
<path d="M19.5007 27.3675C22.6444 27.3675 25.193 25.1053 25.193 22.3148C25.193 19.5243 22.6444 17.2621 19.5007 17.2621C16.357 17.2621 13.8085 19.5243 13.8085 22.3148C13.8085 25.1053 16.357 27.3675 19.5007 27.3675Z" fill="#F5DCB4"/>
<path d="M15.2302 24.8422C17.588 24.8422 19.4995 23.1455 19.4995 21.0525C19.4995 18.9596 17.588 17.2629 15.2302 17.2629C12.8724 17.2629 10.9609 18.9596 10.9609 21.0525C10.9609 23.1455 12.8724 24.8422 15.2302 24.8422Z" fill="#FAEBC8"/>
<path d="M23.7694 24.8422C26.1273 24.8422 28.0387 23.1455 28.0387 21.0525C28.0387 18.9596 26.1273 17.2629 23.7694 17.2629C21.4116 17.2629 19.5002 18.9596 19.5002 21.0525C19.5002 23.1455 21.4116 24.8422 23.7694 24.8422Z" fill="#FAEBC8"/>
<path d="M19.5007 21.052C21.0725 21.052 22.3468 19.9209 22.3468 18.5256C22.3468 17.1304 21.0725 15.9993 19.5007 15.9993C17.9288 15.9993 16.6545 17.1304 16.6545 18.5256C16.6545 19.9209 17.9288 21.052 19.5007 21.052Z" fill="#553732"/>
<path d="M13.8078 14.7362C13.0213 14.7362 12.3846 14.1705 12.3846 13.4729V12.2097C12.3846 11.5121 13.0211 10.9464 13.8078 10.9464C14.5945 10.9464 15.2309 11.5121 15.2309 12.2097V13.4729C15.2308 14.1706 14.5943 14.7362 13.8078 14.7362Z" fill="#553732"/>
<path d="M25.1923 14.7362C24.4057 14.7362 23.7691 14.1705 23.7691 13.4729V12.2097C23.7691 11.5121 24.4056 10.9464 25.1923 10.9464C25.979 10.9464 26.6154 11.5121 26.6154 12.2097V13.4729C26.6154 14.1706 25.979 14.7362 25.1923 14.7362Z" fill="#553732"/>
<path d="M23.7693 33.6832C22.9828 33.6832 22.3462 34.2489 22.3462 34.9465V34.9489C22.3462 36.3433 21.0728 37.4734 19.5021 37.4734C17.9313 37.4734 16.6581 36.3431 16.6581 34.9489V34.9465C16.6581 34.2489 16.0217 33.6832 15.235 33.6832C14.4483 33.6832 13.8118 34.2489 13.8118 34.9465V39.9998L13.812 40H16.6539H16.6579H22.3463H22.3465H25.1923L25.1924 39.9998V34.9465C25.1923 34.2487 24.5558 33.6832 23.7693 33.6832Z" fill="#C09B78"/>
</svg>
